<?xml version="1.0" encoding="UTF-8" standalone="no"?>
<!DOCTYPE svg PUBLIC "-//W3C//DTD SVG 1.1//EN"
 "http://www.w3.org/Graphics/SVG/1.1/DTD/svg11.dtd">
<!-- Generated by graphviz version 2.43.0 (0)
 -->
<!-- Title: G Pages: 1 -->
<svg width="923pt" height="456pt"
 viewBox="0.00 0.00 923.00 456.00" xmlns="http://www.w3.org/2000/svg" xmlns:xlink="http://www.w3.org/1999/xlink">
<g id="graph0" class="graph" transform="scale(1 1) rotate(0) translate(4 452)">
<title>G</title>
<polygon fill="white" stroke="transparent" points="-4,4 -4,-452 919,-452 919,4 -4,4"/>
<!-- farm_agroforestry_association -->
<g id="node1" class="node">
<title>farm_agroforestry_association</title>
<text text-anchor="start" x="551.5" y="-145.4" font-family="Bitstream-Vera Sans" font-size="7.00">farm_agroforestry_association</text>
<polygon fill="none" stroke="black" points="546,-139 546,-141 668,-141 668,-139 546,-139"/>
<text text-anchor="start" x="548" y="-131.4" font-family="Bitstream-Vera Sans" font-size="7.00">&#45; farm_id : INTEGER</text>
<text text-anchor="start" x="548" y="-119.4" font-family="Bitstream-Vera Sans" font-size="7.00">&#45; agroforestry_type_id : INTEGER</text>
<polygon fill="none" stroke="black" points="545,-114 545,-154 669,-154 669,-114 545,-114"/>
</g>
<!-- species_agroforestry_association -->
<g id="node2" class="node">
<title>species_agroforestry_association</title>
<text text-anchor="start" x="718" y="-145.4" font-family="Bitstream-Vera Sans" font-size="7.00">species_agroforestry_association</text>
<polygon fill="none" stroke="black" points="716,-139 716,-141 841,-141 841,-139 716,-139"/>
<text text-anchor="start" x="718" y="-131.4" font-family="Bitstream-Vera Sans" font-size="7.00">&#45; species_id : INTEGER</text>
<text text-anchor="start" x="718" y="-119.4" font-family="Bitstream-Vera Sans" font-size="7.00">&#45; agroforestry_type_id : INTEGER</text>
<polygon fill="none" stroke="black" points="714.5,-114 714.5,-154 841.5,-154 841.5,-114 714.5,-114"/>
</g>
<!-- species_soil_texture_association -->
<g id="node3" class="node">
<title>species_soil_texture_association</title>
<text text-anchor="start" x="418" y="-35.4" font-family="Bitstream-Vera Sans" font-size="7.00">species_soil_texture_association</text>
<polygon fill="none" stroke="black" points="416,-29 416,-31 540,-31 540,-29 416,-29"/>
<text text-anchor="start" x="418" y="-21.4" font-family="Bitstream-Vera Sans" font-size="7.00">&#45; species_id : INTEGER</text>
<text text-anchor="start" x="418" y="-9.4" font-family="Bitstream-Vera Sans" font-size="7.00">&#45; soil_texture_id : INTEGER</text>
<polygon fill="none" stroke="black" points="415,-4 415,-44 541,-44 541,-4 415,-4"/>
</g>
<!-- farms -->
<g id="node4" class="node">
<title>farms</title>
<text text-anchor="start" x="324" y="-435.4" font-family="Bitstream-Vera Sans" font-size="7.00">farms</text>
<polygon fill="none" stroke="black" points="274,-429 274,-431 395,-431 395,-429 274,-429"/>
<text text-anchor="start" x="276" y="-421.4" font-family="Bitstream-Vera Sans" font-size="7.00">&#45; id : INTEGER</text>
<text text-anchor="start" x="276" y="-409.4" font-family="Bitstream-Vera Sans" font-size="7.00">&#45; rainfall_mm : INTEGER</text>
<text text-anchor="start" x="276" y="-397.4" font-family="Bitstream-Vera Sans" font-size="7.00">&#45; temperature_celsius : INTEGER</text>
<text text-anchor="start" x="276" y="-385.4" font-family="Bitstream-Vera Sans" font-size="7.00">&#45; elevation_m : INTEGER</text>
<text text-anchor="start" x="276" y="-373.4" font-family="Bitstream-Vera Sans" font-size="7.00">&#45; ph : FLOAT</text>
<text text-anchor="start" x="276" y="-361.4" font-family="Bitstream-Vera Sans" font-size="7.00">&#45; soil_texture_id : INTEGER</text>
<text text-anchor="start" x="276" y="-349.4" font-family="Bitstream-Vera Sans" font-size="7.00">&#45; area_ha : FLOAT</text>
<text text-anchor="start" x="276" y="-337.4" font-family="Bitstream-Vera Sans" font-size="7.00">&#45; latitude : FLOAT</text>
<text text-anchor="start" x="276" y="-325.4" font-family="Bitstream-Vera Sans" font-size="7.00">&#45; longitude : FLOAT</text>
<text text-anchor="start" x="276" y="-313.4" font-family="Bitstream-Vera Sans" font-size="7.00">&#45; coastal : BOOLEAN</text>
<text text-anchor="start" x="276" y="-301.4" font-family="Bitstream-Vera Sans" font-size="7.00">&#45; riparian : BOOLEAN</text>
<text text-anchor="start" x="276" y="-289.4" font-family="Bitstream-Vera Sans" font-size="7.00">&#45; nitrogen_fixing : BOOLEAN</text>
<text text-anchor="start" x="276" y="-277.4" font-family="Bitstream-Vera Sans" font-size="7.00">&#45; shade_tolerant : BOOLEAN</text>
<text text-anchor="start" x="276" y="-265.4" font-family="Bitstream-Vera Sans" font-size="7.00">&#45; bank_stabilising : BOOLEAN</text>
<text text-anchor="start" x="276" y="-253.4" font-family="Bitstream-Vera Sans" font-size="7.00">&#45; slope : FLOAT</text>
<text text-anchor="start" x="276" y="-241.4" font-family="Bitstream-Vera Sans" font-size="7.00">&#45; user_id : INTEGER</text>
<text text-anchor="start" x="276" y="-229.4" font-family="Bitstream-Vera Sans" font-size="7.00">&#45; external_id : INTEGER</text>
<polygon fill="none" stroke="black" points="272.5,-224 272.5,-444 395.5,-444 395.5,-224 272.5,-224"/>
</g>
<!-- farms&#45;&gt;farm_agroforestry_association -->
<g id="edge1" class="edge">
<title>farms&#45;&gt;farm_agroforestry_association</title>
<path fill="none" stroke="black" d="M413.55,-254C413.55,-254 542,-254 542,-254 542,-254 542,-193.35 542,-158.28"/>
<polygon fill="none" stroke="black" points="413.55,-250.5 403.55,-254 413.55,-257.5 413.55,-250.5"/>
<text text-anchor="middle" x="534" y="-160.68" font-family="Bitstream-Vera Sans" font-size="7.00">+ id</text>
<text text-anchor="middle" x="421.55" y="-256.4" font-family="Bitstream-Vera Sans" font-size="7.00">+ farm_id</text>
</g>
<!-- soil_textures -->
<g id="node6" class="node">
<title>soil_textures</title>
<text text-anchor="start" x="39" y="-145.4" font-family="Bitstream-Vera Sans" font-size="7.00">soil_textures</text>
<polygon fill="none" stroke="black" points="21,-139 21,-141 105,-141 105,-139 21,-139"/>
<text text-anchor="start" x="23" y="-131.4" font-family="Bitstream-Vera Sans" font-size="7.00">&#45; id : INTEGER</text>
<text text-anchor="start" x="23" y="-119.4" font-family="Bitstream-Vera Sans" font-size="7.00">&#45; name : VARCHAR(15)</text>
<polygon fill="none" stroke="black" points="20,-114 20,-154 106,-154 106,-114 20,-114"/>
</g>
<!-- farms&#45;&gt;soil_textures -->
<g id="edge8" class="edge">
<title>farms&#45;&gt;soil_textures</title>
<path fill="none" stroke="black" d="M254.21,-334C254.21,-334 63,-334 63,-334 63,-334 63,-166.12 63,-166.12"/>
<polygon fill="black" stroke="black" points="254.21,-334 264.21,-338.5 259.21,-334 264.21,-334 264.21,-334 264.21,-334 259.21,-334 264.21,-329.5 254.21,-334 254.21,-334"/>
<ellipse fill="none" stroke="black" cx="63" cy="-162.12" rx="4" ry="4"/>
<text text-anchor="middle" x="55" y="-160.52" font-family="Bitstream-Vera Sans" font-size="7.00">+ id</text>
<text text-anchor="middle" x="232.71" y="-336.4" font-family="Bitstream-Vera Sans" font-size="7.00">+ soil_texture_id</text>
</g>
<!-- boundary -->
<g id="node7" class="node">
<title>boundary</title>
<text text-anchor="start" x="217.5" y="-151.4" font-family="Bitstream-Vera Sans" font-size="7.00">boundary</text>
<polygon fill="none" stroke="black" points="152,-145 152,-147 318,-147 318,-145 152,-145"/>
<text text-anchor="start" x="154" y="-137.4" font-family="Bitstream-Vera Sans" font-size="7.00">&#45; id : INTEGER</text>
<text text-anchor="start" x="154" y="-125.4" font-family="Bitstream-Vera Sans" font-size="7.00">&#45; boundary : geometry(MULTIPOLYGON,4326)</text>
<text text-anchor="start" x="154" y="-113.4" font-family="Bitstream-Vera Sans" font-size="7.00">&#45; external_id : INTEGER</text>
<polygon fill="none" stroke="black" points="151,-108 151,-160 319,-160 319,-108 151,-108"/>
</g>
<!-- farms&#45;&gt;boundary -->
<g id="edge9" class="edge">
<title>farms&#45;&gt;boundary</title>
<path fill="none" stroke="black" d="M295.75,-209.98C295.75,-209.98 295.75,-164.36 295.75,-164.36"/>
<polygon fill="none" stroke="black" points="292.25,-209.98 295.75,-219.98 299.25,-209.98 292.25,-209.98"/>
<text text-anchor="middle" x="287.75" y="-166.76" font-family="Bitstream-Vera Sans" font-size="7.00">+ id</text>
<text text-anchor="middle" x="287.75" y="-214.38" font-family="Bitstream-Vera Sans" font-size="7.00">+ id</text>
</g>
<!-- users -->
<g id="node9" class="node">
<title>users</title>
<text text-anchor="start" x="422.5" y="-157.4" font-family="Bitstream-Vera Sans" font-size="7.00">users</text>
<polygon fill="none" stroke="black" points="366,-151 366,-153 499,-153 499,-151 366,-151"/>
<text text-anchor="start" x="368" y="-143.4" font-family="Bitstream-Vera Sans" font-size="7.00">&#45; id : INTEGER</text>
<text text-anchor="start" x="368" y="-131.4" font-family="Bitstream-Vera Sans" font-size="7.00">&#45; name : VARCHAR(255)</text>
<text text-anchor="start" x="368" y="-119.4" font-family="Bitstream-Vera Sans" font-size="7.00">&#45; email : VARCHAR(255)</text>
<text text-anchor="start" x="368" y="-107.4" font-family="Bitstream-Vera Sans" font-size="7.00">&#45; hashed_password : VARCHAR(255)</text>
<polygon fill="none" stroke="black" points="364.5,-102 364.5,-166 499.5,-166 499.5,-102 364.5,-102"/>
</g>
<!-- farms&#45;&gt;users -->
<g id="edge7" class="edge">
<title>farms&#45;&gt;users</title>
<path fill="none" stroke="black" d="M380,-209.98C380,-209.98 380,-178.06 380,-178.06"/>
<polygon fill="black" stroke="black" points="380,-180.06 384.5,-170.06 380,-175.06 380,-170.06 380,-170.06 380,-170.06 380,-175.06 375.5,-170.06 380,-180.06 380,-180.06"/>
<ellipse fill="none" stroke="black" cx="380" cy="-215.98" rx="4" ry="4"/>
<text text-anchor="middle" x="372" y="-214.38" font-family="Bitstream-Vera Sans" font-size="7.00">+ id</text>
<text text-anchor="middle" x="362.5" y="-172.46" font-family="Bitstream-Vera Sans" font-size="7.00">+ user_id</text>
</g>
<!-- species -->
<g id="node5" class="node">
<title>species</title>
<text text-anchor="start" x="822" y="-429.4" font-family="Bitstream-Vera Sans" font-size="7.00">species</text>
<polygon fill="none" stroke="black" points="766,-423 766,-425 906,-425 906,-423 766,-423"/>
<text text-anchor="start" x="768" y="-415.4" font-family="Bitstream-Vera Sans" font-size="7.00">&#45; id : INTEGER</text>
<text text-anchor="start" x="768" y="-403.4" font-family="Bitstream-Vera Sans" font-size="7.00">&#45; name : VARCHAR</text>
<text text-anchor="start" x="768" y="-391.4" font-family="Bitstream-Vera Sans" font-size="7.00">&#45; common_name : VARCHAR</text>
<text text-anchor="start" x="768" y="-379.4" font-family="Bitstream-Vera Sans" font-size="7.00">&#45; rainfall_mm_min : INTEGER</text>
<text text-anchor="start" x="768" y="-367.4" font-family="Bitstream-Vera Sans" font-size="7.00">&#45; rainfall_mm_max : INTEGER</text>
<text text-anchor="start" x="768" y="-355.4" font-family="Bitstream-Vera Sans" font-size="7.00">&#45; temperature_celsius_min : INTEGER</text>
<text text-anchor="start" x="768" y="-343.4" font-family="Bitstream-Vera Sans" font-size="7.00">&#45; temperature_celsius_max : INTEGER</text>
<text text-anchor="start" x="768" y="-331.4" font-family="Bitstream-Vera Sans" font-size="7.00">&#45; elevation_m_min : INTEGER</text>
<text text-anchor="start" x="768" y="-319.4" font-family="Bitstream-Vera Sans" font-size="7.00">&#45; elevation_m_max : INTEGER</text>
<text text-anchor="start" x="768" y="-307.4" font-family="Bitstream-Vera Sans" font-size="7.00">&#45; ph_min : FLOAT</text>
<text text-anchor="start" x="768" y="-295.4" font-family="Bitstream-Vera Sans" font-size="7.00">&#45; ph_max : FLOAT</text>
<text text-anchor="start" x="768" y="-283.4" font-family="Bitstream-Vera Sans" font-size="7.00">&#45; coastal : BOOLEAN</text>
<text text-anchor="start" x="768" y="-271.4" font-family="Bitstream-Vera Sans" font-size="7.00">&#45; riparian : BOOLEAN</text>
<text text-anchor="start" x="768" y="-259.4" font-family="Bitstream-Vera Sans" font-size="7.00">&#45; nitrogen_fixing : BOOLEAN</text>
<text text-anchor="start" x="768" y="-247.4" font-family="Bitstream-Vera Sans" font-size="7.00">&#45; shade_tolerant : BOOLEAN</text>
<text text-anchor="start" x="768" y="-235.4" font-family="Bitstream-Vera Sans" font-size="7.00">&#45; bank_stabilising : BOOLEAN</text>
<polygon fill="none" stroke="black" points="765,-230 765,-438 907,-438 907,-230 765,-230"/>
</g>
<!-- species&#45;&gt;species_agroforestry_association -->
<g id="edge3" class="edge">
<title>species&#45;&gt;species_agroforestry_association</title>
<path fill="none" stroke="black" d="M803.25,-215.81C803.25,-215.81 803.25,-158.34 803.25,-158.34"/>
<polygon fill="none" stroke="black" points="799.75,-215.81 803.25,-225.81 806.75,-215.81 799.75,-215.81"/>
<text text-anchor="middle" x="795.25" y="-160.74" font-family="Bitstream-Vera Sans" font-size="7.00">+ id</text>
<text text-anchor="middle" x="780.25" y="-220.21" font-family="Bitstream-Vera Sans" font-size="7.00">+ species_id</text>
</g>
<!-- species&#45;&gt;species_soil_texture_association -->
<g id="edge5" class="edge">
<title>species&#45;&gt;species_soil_texture_association</title>
<path fill="none" stroke="black" d="M746.83,-282C746.83,-282 522.25,-282 522.25,-282 522.25,-282 522.25,-112.5 522.25,-48.27"/>
<polygon fill="none" stroke="black" points="746.83,-285.5 756.83,-282 746.83,-278.5 746.83,-285.5"/>
<text text-anchor="middle" x="514.25" y="-50.67" font-family="Bitstream-Vera Sans" font-size="7.00">+ id</text>
<text text-anchor="middle" x="733.83" y="-284.4" font-family="Bitstream-Vera Sans" font-size="7.00">+ species_id</text>
</g>
<!-- soil_textures&#45;&gt;species_soil_texture_association -->
<g id="edge6" class="edge">
<title>soil_textures&#45;&gt;species_soil_texture_association</title>
<path fill="none" stroke="black" d="M63,-99.86C63,-99.86 63,-24 63,-24 63,-24 288,-24 406.66,-24"/>
<polygon fill="none" stroke="black" points="59.5,-99.86 63,-109.86 66.5,-99.86 59.5,-99.86"/>
<text text-anchor="middle" x="398.66" y="-26.4" font-family="Bitstream-Vera Sans" font-size="7.00">+ id</text>
<text text-anchor="middle" x="31.5" y="-104.26" font-family="Bitstream-Vera Sans" font-size="7.00">+ soil_texture_id</text>
</g>
<!-- agroforestry_types -->
<g id="node8" class="node">
<title>agroforestry_types</title>
<text text-anchor="start" x="573" y="-345.4" font-family="Bitstream-Vera Sans" font-size="7.00">agroforestry_types</text>
<polygon fill="none" stroke="black" points="556,-339 556,-341 660,-341 660,-339 556,-339"/>
<text text-anchor="start" x="558" y="-331.4" font-family="Bitstream-Vera Sans" font-size="7.00">&#45; id : INTEGER</text>
<text text-anchor="start" x="558" y="-319.4" font-family="Bitstream-Vera Sans" font-size="7.00">&#45; type_name : VARCHAR(15)</text>
<polygon fill="none" stroke="black" points="555,-314 555,-354 661,-354 661,-314 555,-314"/>
</g>
<!-- agroforestry_types&#45;&gt;farm_agroforestry_association -->
<g id="edge2" class="edge">
<title>agroforestry_types&#45;&gt;farm_agroforestry_association</title>
<path fill="none" stroke="black" d="M608,-299.88C608,-299.88 608,-158.21 608,-158.21"/>
<polygon fill="none" stroke="black" points="604.5,-299.88 608,-309.88 611.5,-299.88 604.5,-299.88"/>
<text text-anchor="middle" x="600" y="-160.61" font-family="Bitstream-Vera Sans" font-size="7.00">+ id</text>
<text text-anchor="middle" x="565.5" y="-304.28" font-family="Bitstream-Vera Sans" font-size="7.00">+ agroforestry_type_id</text>
</g>
<!-- agroforestry_types&#45;&gt;species_agroforestry_association -->
<g id="edge4" class="edge">
<title>agroforestry_types&#45;&gt;species_agroforestry_association</title>
<path fill="none" stroke="black" d="M679.15,-334C679.15,-334 731.75,-334 731.75,-334 731.75,-334 731.75,-211.32 731.75,-158.12"/>
<polygon fill="none" stroke="black" points="679.15,-330.5 669.15,-334 679.15,-337.5 679.15,-330.5"/>
<text text-anchor="middle" x="723.75" y="-160.52" font-family="Bitstream-Vera Sans" font-size="7.00">+ id</text>
<text text-anchor="middle" x="711.65" y="-336.4" font-family="Bitstream-Vera Sans" font-size="7.00">+ agroforestry_type_id</text>
</g>
</g>
</svg>
