<?xml version="1.0" encoding="iso-8859-1"?>
<!-- Uploaded to: SVG Repo, www.svgrepo.com, Generator: SVG Repo Mixer Tools -->
<svg height="800px" width="800px" version="1.1" id="Layer_1" xmlns="http://www.w3.org/2000/svg" xmlns:xlink="http://www.w3.org/1999/xlink" 
	 viewBox="0 0 511.844 511.844" xml:space="preserve">
<path style="fill:#9ED36A;" d="M373.226,277.26c0,111.887-52.515,127.961-117.3,127.961c-64.793,0-117.308-16.074-117.308-127.961
	C138.618,165.356,222.405,0,255.926,0C289.44,0,373.226,165.356,373.226,277.26z"/>
<g style="opacity:0.2;">
	<path style="fill:#FFFFFF;" d="M255.926,0c-3.155,0-6.748,1.461-10.669,4.194c37.841,26.397,106.632,171.666,106.632,273.065
		c0,105.686-46.861,125.867-106.632,127.773c3.515,0.125,7.076,0.188,10.669,0.188c64.785,0,117.3-16.074,117.3-127.961
		C373.226,165.356,289.44,0,255.926,0z"/>
</g>
<path style="fill:#965353;" d="M255.926,223.932c-5.889,0-10.669,4.772-10.669,10.661v277.251h21.321V234.593
	C266.578,228.704,261.815,223.932,255.926,223.932z"/>
<path style="fill:#424953;" d="M287.908,490.507h-63.973c-5.889,0-10.669,4.78-10.669,10.685c0,5.873,4.78,10.652,10.669,10.652
	h63.973c5.904,0,10.652-4.779,10.652-10.652C298.561,495.287,293.813,490.507,287.908,490.507z"/>
</svg>