<svg width="181" height="117" viewBox="0 0 181 117" fill="none" xmlns="http://www.w3.org/2000/svg">
<path d="M113.357 45.0149C113.047 44.7725 112.948 44.3668 112.706 44.0685C112.248 44.2798 110.403 45.1309 110.374 45.1189C110.311 45.1131 110.499 44.8611 110.74 44.5535C110.551 44.6168 110.354 44.6305 110.144 44.5509C110.046 44.5136 109.963 44.4588 109.886 44.3974C109.646 44.905 109.466 45.3007 109.434 45.3998C108.883 45.8032 108.562 44.1293 108.677 43.5241C108.693 43.4389 108.826 43.2998 108.923 43.1464C108.58 42.8224 108.138 42.601 107.671 42.5349C107.612 42.5266 107.552 42.5226 107.492 42.5215C107.331 43.1865 107.272 43.9082 107.447 44.5967C107.478 44.7208 107.492 44.8508 107.492 44.9885C107.492 45.2464 107.441 45.5296 107.343 45.8283C107.274 46.0423 107.18 46.2649 107.069 46.4936C107.612 46.8691 108.568 47.8646 107.458 48.2616C107.264 48.3309 107.057 48.3562 106.861 48.42C105.924 48.7254 106.464 49.8365 106.081 50.4934C106.012 50.6106 105.899 50.7094 105.764 50.7251C105.668 50.7362 105.574 50.7055 105.483 50.6727C105.071 50.523 104.694 50.3097 104.315 50.0943C103.571 50.8461 102.799 51.5239 102.115 52.0349C101.61 52.3705 101.013 52.737 100.376 53.1463C98.6189 54.2693 99.0077 53.4004 98.8133 51.2901C98.7311 50.3987 98.9533 49.653 99.2363 49.0866C99.203 49.0298 99.1692 48.9726 99.1374 48.9168C98.7635 48.2627 97.6013 48.2735 96.9709 48.3382C96.9192 48.3435 96.8663 48.3541 96.8141 48.3612C96.8204 48.384 96.8255 48.3991 96.8267 48.4021C96.9556 48.7454 97.021 49.1682 97.021 49.754C97.021 50.0798 97.0006 50.4561 96.9576 50.8964C96.7285 53.2025 96.2722 53.6816 95.0999 54.8046C93.9276 55.9315 92.6918 55.4524 92.1353 54.6921C91.5829 53.9318 90.7686 52.3588 91.2576 51.7944C91.7309 51.2518 92.3536 50.6791 92.2742 49.2144C92.0797 49.7612 91.8458 50.287 91.3277 50.5928C90.8239 50.8902 90.0795 50.9953 89.4472 50.8971C87.9823 52.0802 87.5543 50.0034 87.8695 48.6465C87.9002 48.5144 87.9135 48.3704 87.9183 48.2215C87.8016 48.1213 87.6325 48.1017 87.3826 48.2324C87.2199 48.3175 87.1088 48.4228 87.0167 48.5445C86.9337 49.6762 86.8096 50.647 86.7467 50.5929C86.7146 50.5649 86.5342 50.2599 86.272 49.8095C86.1193 50.0108 85.9355 50.1774 85.6914 50.2441C85.317 50.3464 84.9411 50.1655 84.5912 50.0532C84.5112 50.0275 84.4315 50.0007 84.352 49.9731C85.1428 51.0765 85.9148 52.2564 85.8184 52.1743C85.6604 52.0376 82.1686 50.6855 81.429 50.5916C81.4114 50.628 81.3836 50.6632 81.339 50.696C80.8638 51.0452 80.3872 51.0209 79.9101 50.974C83.5188 51.9913 87.5677 54.3305 89.05 57.9195C89.674 59.4266 90.1855 61.0694 90.3308 62.9488C90.3205 63.1932 90.3062 63.4395 90.3103 63.6975C90.337 65.3171 90.1376 66.9387 89.751 68.5107C89.5281 69.4172 89.3918 70.4342 88.882 71.2543C88.0065 72.6627 85.8213 73.0829 84.3377 73.4678C82.3138 73.9931 81.4677 74.3856 79.3812 74.2089C79.2249 74.1957 79.0688 74.1802 78.9129 74.1623C78.5413 74.1198 77.3856 74.0644 77.3238 74.4775C77.2854 74.7335 77.8103 74.6696 78.0061 74.6871C78.9165 74.7685 79.831 74.8461 80.7454 74.881C82.5213 74.9508 84.4322 74.5164 86.3247 74.5707C85.7415 74.7711 85.3525 75.4765 84.7921 75.7509C84.0157 76.131 83.2094 76.5063 82.3706 76.7273C81.7552 76.8895 81.1391 77.0361 80.5559 77.2984C80.3438 77.3938 80.2531 77.6924 80.4473 77.8512C80.5532 77.9377 80.7106 77.8924 80.8279 77.8595C80.9702 77.8196 81.1097 77.7871 81.255 77.7586C81.6123 77.6887 81.97 77.6212 82.3276 77.5529C83.0429 77.4165 83.7579 77.2774 84.4671 77.1119C84.9703 76.9945 85.4706 76.8637 85.9645 76.7115C87.4399 76.257 88.8774 75.6712 90.3838 75.3208C91.2925 75.1094 92.232 74.9251 93.1694 74.9606C94.2072 75 95.0441 75.622 95.5815 76.481C95.9009 76.9915 96.4107 79.0882 97.3166 78.5699C97.6834 78.36 97.45 77.7895 97.2831 77.4985C97.1649 77.2924 97.0734 77.071 97.0116 76.8415C96.9723 76.6958 96.9474 76.531 97.0246 76.4013C97.0758 76.3153 97.1648 76.2586 97.2565 76.2185C97.9621 75.9101 98.7496 76.2647 99.4289 76.4598C101.152 76.9564 102.852 77.4859 104.607 77.9281C105.487 78.1511 107.024 78.3981 107.963 78.5145C108.213 78.5455 107.761 78.1928 107.577 77.8874C107.434 77.6496 106.31 77.446 106.058 77.3808C104.455 76.9656 103.92 76.1867 102.258 76.0129C105.057 76.3057 104.274 75.5717 110.682 76.648C111.427 76.7731 111.31 76.6945 111.355 76.4094C111.396 76.1573 111.132 76.1107 110.831 76.0351C109.426 75.6801 107.32 75.1733 105.793 74.7757C106.542 74.6361 108.221 74.8727 108.785 74.7408C108.933 74.7059 108.691 74.369 108.703 74.2681C108.712 74.1964 108.515 74.0955 108.378 74.0354C108.247 73.9811 108.077 73.952 107.92 73.9287C106.328 73.6901 104.73 73.469 103.145 73.2149C102.075 73.0423 101.135 72.6816 100.739 72.0337C99.7319 70.4026 99.1448 68.7055 98.7908 66.9948C98.5964 66.0521 98.4675 65.1056 98.3509 64.1591C98.31 61.2459 98.8665 58.5538 99.1304 57.9894C100.282 55.538 102.971 53.9661 104.878 52.1676C105.769 51.3269 106.84 50.4873 107.569 49.5082C108.187 48.6779 108.591 47.7349 109.458 47.1041C110.266 46.5173 111.266 46.19 112.102 45.6966C112.29 45.5861 113.174 44.9252 113.384 45.0619C113.384 45.0611 113.373 45.0422 113.357 45.0149V45.0149Z" fill="#808285"/>
<path d="M161.081 2.04092C158.886 1.65438 158.15 2.75611 157.537 3.89094C157.272 4.3804 156.775 4.0095 156.494 3.74938C155.765 3.0747 156.061 1.72652 154.688 1.72652C154.156 1.72652 153.687 2.00222 153.464 2.48967C153.338 2.76312 153.392 2.87163 153.17 3.02028C152.909 3.19527 152.328 3.20755 152.021 3.22135C150.988 3.26787 150.774 2.28707 150.257 1.55935C149.931 1.10173 149.217 -0.0569609 148.536 0.00218249C147.822 0.0636734 147.358 0.230032 145.919 0.239558C144.48 0.2491 144.317 1.07088 142.672 2.7135C141.026 4.35565 144.466 3.94238 142.972 5.9182C141.478 7.89354 140.641 5.35571 138.767 6.97498C136.893 8.59425 137.845 6.24708 135.881 5.76805C134.59 5.45323 133.763 6.23911 132.416 7.38645C132.499 7.41439 132.584 7.44605 132.668 7.48552C133.537 7.8898 134.146 8.60948 134.575 9.43439C134.761 9.79262 134.96 10.159 134.918 10.5772C134.879 10.968 135.801 11.1984 136.054 11.2481C136.744 11.3838 137.15 12.1474 137.063 12.7947C137.009 13.2016 136.793 13.5254 136.489 13.7391C136.618 13.6482 137.522 14.5051 137.629 14.5938C137.777 14.7175 137.922 14.8494 138.072 14.9729C138.087 14.9845 138.102 14.9963 138.117 15.0078C138.267 15.128 138.423 15.239 138.597 15.3222C138.96 15.496 139.368 15.5441 139.745 15.6781C140.007 15.7714 140.253 15.918 140.456 16.106C140.794 16.42 141.009 16.8493 140.974 17.3379C140.957 17.5787 140.885 17.8113 140.777 18.0251C140.775 18.0297 140.772 18.034 140.77 18.0385C140.751 18.0766 140.733 18.1154 140.711 18.152C140.539 18.4628 140.262 18.7208 139.901 18.8675C139.815 18.9023 139.726 18.9329 139.631 18.9543C139.511 18.9813 139.362 19.0215 139.215 19.0761C139.151 19.0999 139.088 19.1261 139.028 19.1561C139.023 19.159 139.016 19.1613 139.011 19.1642C139 19.1698 138.99 19.1763 138.98 19.1821C138.872 19.2409 138.777 19.31 138.713 19.393C138.612 19.5252 138.538 19.6864 138.452 19.8287C138.136 20.3481 137.822 20.8683 137.491 21.3782C137.4 21.5183 137.336 21.701 137.21 21.8114C137.217 21.8219 137.208 21.8068 137.21 21.8114L137.134 21.9299C137.005 22.1292 136.968 22.3687 136.927 22.5976C136.9 22.7501 136.907 22.9081 136.909 23.0622C136.911 23.2091 136.933 23.3609 136.897 23.5055C136.887 23.5483 136.87 23.5899 136.855 23.6312C136.835 23.6858 136.593 24.24 136.63 24.2625C136.625 24.2598 136.623 24.2576 136.619 24.2549C136.65 24.2744 136.615 24.4133 136.612 24.4418C136.601 24.5547 136.622 24.608 136.699 24.6914C136.738 24.7337 136.777 24.7759 136.817 24.8173C137.019 25.0261 137.235 25.222 137.466 25.3988C137.649 25.5391 137.946 25.7791 138.198 25.7178C138.951 25.5359 140.226 25.4199 140.798 24.9015C140.948 24.7656 141.159 24.7008 141.327 24.5857C141.894 24.1988 142.287 23.5855 142.467 22.9286C142.502 22.8022 142.51 22.6729 142.584 22.5622C143.001 21.938 143.631 20.9981 144.285 20.6052C144.973 20.1919 145.691 20.5936 146.302 20.9754C146.901 21.35 147.597 21.7875 148.337 21.6721C149.162 21.5434 149.771 20.8961 150.298 20.3005C150.525 20.0435 150.727 19.6923 151.088 19.6127C151.52 19.5177 151.946 19.85 152.378 19.8296C152.702 19.8144 152.987 19.6894 153.269 19.5367C153.556 19.3811 154.639 18.4412 154.972 18.8335C155.403 19.3399 155.51 19.8868 156.327 19.8867C156.92 19.8866 157.426 19.4785 157.611 18.9245C157.857 18.1849 157.374 17.8106 157.225 17.1445C157.166 16.8811 157.172 16.6031 157.211 16.3374C157.384 15.137 157.912 14.2905 159.172 14.2906C161.031 14.2907 160.852 11.2847 158.954 11.4888C158.376 11.551 156.869 11.1128 156.711 10.4495C156.512 9.61195 158.178 8.17715 159.681 7.58513C161.185 6.99309 162.612 8.13903 165.566 6.38294C168.52 4.62688 163.277 2.42749 161.081 2.04092V2.04092Z" fill="#8EC741"/>
<path d="M140.456 16.106C140.253 15.918 140.007 15.7714 139.745 15.6781C139.368 15.544 138.96 15.496 138.597 15.3222C138.23 15.1465 137.938 14.8516 137.629 14.5938C137.523 14.5051 136.618 13.6481 136.489 13.7391C136.793 13.5254 137.009 13.2015 137.063 12.7946C137.15 12.1474 136.744 11.3837 136.054 11.248C135.801 11.1983 134.879 10.9679 134.918 10.5771C134.96 10.159 134.761 9.79257 134.575 9.43434C134.146 8.60943 133.537 7.88975 132.668 7.48547C131.755 7.06018 130.883 7.31938 130.263 7.93081C130.178 7.98201 130.097 8.04023 130.023 8.114C129.761 8.37691 129.52 8.66021 129.297 8.9566C128.935 9.43736 128.436 9.7987 127.912 10.0841C127.674 10.2135 127.51 10.363 127.33 10.4741C127.17 10.5727 126.999 10.6414 126.752 10.6353C126.494 10.629 126.267 10.2512 126.084 10.1059C125.493 9.63531 125.23 10.2806 124.691 10.2319C124.516 10.216 124.468 9.97944 124.424 9.83986C124.182 9.0623 124.073 5.64186 122.51 6.71885C121.849 7.17427 121.545 8.08561 120.749 8.35919C120.07 8.59262 119.542 8.23893 119.176 7.69977C118.749 7.07057 117.936 6.79144 117.248 7.19405C116.818 7.44605 116.54 7.95786 116.545 8.45495C116.55 9.02605 116.853 9.58962 116.117 9.86262C115.536 10.078 114.789 9.84103 114.248 9.60897C113.856 9.44102 113.514 9.31106 113.202 9.23294C113.003 9.10688 112.755 9.03058 112.458 9.03058C111.824 9.03058 111.186 9.496 111.09 10.1535C111.079 10.225 111.094 10.2794 111.1 10.3485C111.11 10.4693 111.1 10.5879 111.12 10.7091C111.183 11.0893 111.758 11.5685 111.65 11.9162C111.498 12.4008 110.701 12.7767 110.238 12.8385C109.247 12.9705 108.344 13.4317 107.549 14.0158C107.503 14.0496 107.454 14.0795 107.403 14.1052C107.353 14.1302 107.301 14.1512 107.248 14.1679C107.195 14.1846 107.141 14.1971 107.086 14.2056C107.031 14.2141 106.975 14.2187 106.92 14.2197C106.864 14.2206 106.807 14.2178 106.752 14.2116C106.695 14.2054 106.639 14.1958 106.584 14.1831C106.528 14.1703 106.473 14.1543 106.42 14.1355C106.372 14.1187 106.325 14.0996 106.278 14.0786C106.281 14.0873 106.283 14.0959 106.285 14.1015C106.293 14.1225 106.31 14.1396 106.321 14.1584C106.334 14.1789 106.345 14.2 106.356 14.2213C106.38 14.2671 106.401 14.3141 106.421 14.3612C106.44 14.4033 106.457 14.4457 106.476 14.4876C106.483 14.5046 106.491 14.5216 106.5 14.5381C106.631 14.783 106.749 14.9451 106.979 15.0559C107.028 15.0758 107.08 15.0956 107.132 15.1172C107.664 15.2979 108.19 15.3889 108.548 15.8745C108.486 15.7931 108.423 15.7117 108.361 15.6303C110.146 16.6381 110.043 19.4692 108.129 20.3008C107.964 20.3722 107.622 20.5586 107.494 20.6997C107.361 20.8472 107.311 21.053 107.301 21.2515C107.262 21.9857 107.571 22.7528 106.73 23.1096C106.504 23.2058 106.272 23.2523 106.037 23.2704C106.169 23.3012 106.301 23.3328 106.431 23.3645C106.566 23.3971 106.702 23.4179 106.836 23.4513C106.974 23.4855 107.107 23.5375 107.243 23.5764C107.51 23.6526 107.771 23.7282 108.052 23.7194C108.386 23.709 108.706 23.5911 109.004 23.4459C109.33 23.2865 109.639 23.0944 109.951 22.909C109.986 22.8884 110.022 22.8697 110.057 22.8493C110.128 22.8062 110.199 22.7645 110.268 22.7265C110.305 22.706 110.343 22.6864 110.381 22.6663C110.41 22.6503 110.44 22.6344 110.47 22.6187C110.487 22.6096 110.504 22.6001 110.522 22.5911C110.631 22.5346 110.741 22.4813 110.853 22.4298C110.876 22.4188 110.899 22.4058 110.923 22.395C111.471 22.147 112.1 21.9484 112.714 21.9789C112.723 21.9792 112.731 21.9782 112.74 21.9785C112.748 21.9788 112.755 21.9804 112.763 21.9808C112.807 21.984 112.852 21.9888 112.896 21.9945C112.948 22.001 113 22.0091 113.051 22.0196C113.069 22.0231 113.086 22.0241 113.104 22.0281C113.117 22.0312 113.13 22.0365 113.143 22.0399C113.314 22.0823 113.481 22.142 113.643 22.2137C113.75 22.2612 113.843 22.3025 113.932 22.3385C113.974 22.3552 114.017 22.3719 114.06 22.3867C114.074 22.3916 114.088 22.3973 114.102 22.4018C114.306 22.4675 114.522 22.479 114.733 22.4483C114.773 22.442 114.817 22.4328 114.861 22.4232C114.895 22.4152 114.929 22.4072 114.962 22.397C114.984 22.3905 115.007 22.384 115.028 22.3763C115.094 22.3525 115.157 22.3236 115.216 22.2895C115.226 22.2841 115.235 22.2779 115.245 22.2722C115.302 22.2379 115.357 22.2006 115.411 22.1604C115.416 22.1565 115.421 22.1529 115.427 22.1489C115.49 22.1007 115.551 22.05 115.612 21.9987C115.659 21.9595 115.706 21.9205 115.753 21.8817C115.764 21.8726 115.775 21.8631 115.786 21.8542L115.789 21.8518C115.833 21.817 115.877 21.7829 115.922 21.7505C115.936 21.7408 115.951 21.7331 115.965 21.7238C115.998 21.7012 116.033 21.6807 116.067 21.6598C116.09 21.6463 116.111 21.631 116.134 21.6181C116.149 21.6094 116.164 21.6013 116.18 21.5931C116.23 21.5658 116.282 21.5419 116.334 21.5181C116.343 21.5141 116.351 21.5093 116.36 21.5054L116.367 21.5027C116.468 21.458 116.572 21.4175 116.679 21.3869C116.916 21.3195 117.168 21.2887 117.416 21.3025C117.413 21.2986 117.41 21.2946 117.406 21.291C117.542 21.3008 117.68 21.3253 117.819 21.3672C117.83 21.3701 117.84 21.3743 117.85 21.3773C117.856 21.379 117.861 21.3814 117.866 21.3831C117.908 21.396 117.949 21.4124 117.99 21.4285C118.026 21.4409 118.063 21.452 118.098 21.4684C118.108 21.473 118.116 21.48 118.126 21.4849C118.133 21.4886 118.14 21.4938 118.147 21.4976C118.419 21.6381 118.619 21.8599 118.782 22.1143C118.822 22.1755 118.864 22.2363 118.904 22.2974C118.925 22.3289 118.946 22.3603 118.969 22.3909C118.998 22.4326 119.03 22.4724 119.062 22.5121C119.101 22.5588 119.142 22.6044 119.184 22.6485C119.204 22.6693 119.224 22.6907 119.245 22.7108C119.381 22.8426 119.532 22.9607 119.695 23.0618C119.719 23.0765 119.743 23.0897 119.767 23.1037C119.827 23.1384 119.889 23.1709 119.951 23.2008C119.978 23.2139 120.005 23.2269 120.033 23.239C120.103 23.2695 120.174 23.2964 120.246 23.3203C120.264 23.3264 120.282 23.3339 120.301 23.3396C120.391 23.3674 120.483 23.3893 120.575 23.4057C120.597 23.4095 120.62 23.411 120.642 23.4143C120.724 23.4261 120.806 23.4358 120.888 23.4378C120.896 23.4379 120.905 23.4375 120.913 23.4375C120.968 23.4378 121.021 23.4341 121.072 23.4274C121.088 23.4253 121.104 23.4226 121.119 23.4198C121.17 23.4107 121.219 23.3989 121.264 23.3827C121.268 23.3813 121.272 23.3804 121.276 23.379C121.325 23.3605 121.369 23.3368 121.411 23.3102C121.417 23.3059 121.424 23.3019 121.431 23.2974C121.47 23.2701 121.505 23.2392 121.536 23.2047C121.542 23.1977 121.547 23.1903 121.552 23.1832C121.577 23.1522 121.599 23.1185 121.617 23.0825C121.621 23.0743 121.626 23.0666 121.629 23.0584C121.646 23.0212 121.656 22.9805 121.664 22.9387C121.667 22.9205 121.671 22.9024 121.673 22.884C121.677 22.8454 121.677 22.8047 121.675 22.7629C121.674 22.7423 121.672 22.7217 121.67 22.701C121.663 22.6488 121.652 22.5948 121.634 22.5381C121.632 22.5308 121.63 22.5233 121.628 22.516C121.598 22.4243 121.564 22.3344 121.528 22.2457C121.524 22.2366 121.52 22.2276 121.516 22.2185C121.464 22.0927 121.407 21.9693 121.349 21.8467C121.338 21.8233 121.328 21.7997 121.317 21.7763C121.284 21.7069 121.251 21.6375 121.218 21.568C121.201 21.5312 121.185 21.4938 121.168 21.4567C121.16 21.4399 121.152 21.4235 121.145 21.4066C121.142 21.3997 121.139 21.3926 121.136 21.3857C121.111 21.3289 121.087 21.2714 121.064 21.2138C121.054 21.1881 121.042 21.1629 121.032 21.137C121.031 21.1337 121.03 21.1303 121.027 21.123L121.026 21.1184C120.999 21.0477 120.976 20.9761 120.954 20.9039C120.949 20.8882 120.943 20.8731 120.938 20.8573L120.937 20.8531C120.913 20.7681 120.892 20.682 120.877 20.5945C120.876 20.5888 120.875 20.5829 120.875 20.5772C120.874 20.5731 120.872 20.5693 120.872 20.5652C120.87 20.5515 120.87 20.5366 120.868 20.5228C120.857 20.4498 120.85 20.3768 120.847 20.3033C120.846 20.2877 120.843 20.2732 120.842 20.2575C120.842 20.2307 120.844 20.2039 120.844 20.1771C120.844 20.1526 120.845 20.1281 120.846 20.1036C120.846 20.0883 120.846 20.0729 120.847 20.0575C120.849 20.0267 120.853 19.9948 120.857 19.9637C120.86 19.936 120.862 19.9083 120.866 19.8807C120.867 19.8736 120.867 19.867 120.868 19.8598C120.874 19.8179 120.883 19.7765 120.892 19.7343C120.896 19.7152 120.898 19.6958 120.903 19.6768C120.906 19.6619 120.911 19.6473 120.915 19.6325C120.921 19.6103 120.927 19.5881 120.934 19.5655L120.939 19.5466C120.957 19.4845 120.978 19.4234 121.002 19.3628L121.003 19.3582L121.004 19.3552C121.027 19.2976 121.052 19.2411 121.079 19.1854L121.081 19.1802L121.088 19.1657L121.09 19.162C121.116 19.1089 121.145 19.057 121.176 19.0061L121.178 19.0027L121.188 18.9857L121.189 18.9837C121.256 18.8753 121.333 18.7733 121.418 18.6793C121.424 18.6725 121.43 18.6656 121.437 18.6588C121.439 18.6559 121.442 18.6534 121.445 18.6505C121.564 18.5252 121.697 18.4139 121.847 18.3264C122.095 18.1826 122.415 18.0944 122.721 18.1073C122.725 18.1074 122.729 18.1068 122.734 18.107C122.742 18.1073 122.75 18.1093 122.759 18.1098C122.803 18.113 122.846 18.1167 122.889 18.1245C122.895 18.1255 122.9 18.1274 122.905 18.1284C122.988 18.1446 123.066 18.1714 123.141 18.2066C123.162 18.2166 123.184 18.2261 123.205 18.2376C123.23 18.2519 123.254 18.2678 123.278 18.2847C123.313 18.3089 123.345 18.3357 123.375 18.3647C123.385 18.3736 123.396 18.3794 123.405 18.3889C123.41 18.3942 123.413 18.3999 123.418 18.4053C123.429 18.4178 123.439 18.4312 123.45 18.4444C123.466 18.4655 123.481 18.487 123.494 18.509C123.556 18.6091 123.597 18.7251 123.6 18.8606C123.601 18.9336 123.596 19.0133 123.589 19.0951C123.588 19.1061 123.587 19.117 123.587 19.1279C123.584 19.1578 123.582 19.1878 123.579 19.2183C123.573 19.2756 123.568 19.3332 123.563 19.3907C123.561 19.4185 123.559 19.4463 123.557 19.4741C123.553 19.5449 123.551 19.6158 123.554 19.6866C123.556 19.7373 123.56 19.7874 123.568 19.8358L123.568 19.8401C123.585 19.9406 123.617 20.0346 123.671 20.1182C123.667 20.1061 123.661 20.0949 123.655 20.0832C123.648 20.0677 123.641 20.0518 123.634 20.0363L123.64 20.0474L123.639 20.0461C123.674 20.1157 123.708 20.1856 123.743 20.255C123.752 20.2728 123.762 20.2906 123.771 20.3081C123.81 20.3819 123.853 20.4535 123.901 20.5221C123.913 20.5399 123.926 20.5574 123.94 20.5748C123.969 20.6133 124.001 20.6503 124.034 20.6864C124.072 20.7281 124.113 20.7685 124.156 20.8069C124.164 20.814 124.172 20.8212 124.18 20.8281C124.351 20.9758 124.551 21.096 124.764 21.1782C124.78 21.1842 124.796 21.19 124.812 21.1956C124.863 21.2138 124.915 21.2295 124.968 21.2431C125.01 21.2538 125.053 21.2637 125.096 21.2713C125.121 21.2758 125.146 21.2801 125.171 21.2835C125.235 21.2918 125.299 21.2972 125.363 21.298C125.378 21.2982 125.393 21.2976 125.408 21.2973C125.479 21.2962 125.55 21.2918 125.62 21.2806L125.626 21.2794C125.783 21.2534 125.927 21.1961 126.065 21.1246C126.146 21.0808 126.225 21.0353 126.301 20.9877C126.36 20.9507 126.416 20.9142 126.473 20.8775C126.483 20.8711 126.493 20.8647 126.503 20.8583C126.512 20.8527 126.521 20.8475 126.529 20.8419C126.562 20.8208 126.595 20.7997 126.628 20.7788C126.633 20.7755 126.639 20.7729 126.644 20.7696C126.713 20.7264 126.784 20.6859 126.856 20.6476C126.877 20.6364 126.897 20.6227 126.918 20.6121C126.933 20.6047 126.948 20.598 126.963 20.5909C126.995 20.5761 127.027 20.5632 127.06 20.5501C127.069 20.5463 127.08 20.544 127.089 20.5403C127.133 20.5235 127.177 20.5097 127.222 20.4965C127.23 20.4941 127.238 20.4905 127.247 20.4882C127.262 20.4842 127.276 20.4794 127.291 20.4758C127.305 20.4725 127.32 20.4701 127.334 20.4672C127.351 20.4637 127.366 20.4573 127.383 20.4544C127.44 20.4447 127.496 20.4392 127.552 20.4359C127.557 20.4357 127.561 20.4346 127.565 20.4343C127.574 20.4338 127.584 20.4352 127.593 20.4349C127.653 20.433 127.713 20.4343 127.773 20.4388C127.783 20.4396 127.793 20.4386 127.802 20.4395C127.807 20.4399 127.811 20.4412 127.816 20.4416C127.881 20.4483 127.946 20.4593 128.011 20.473C128.029 20.477 128.048 20.4814 128.066 20.486C128.132 20.5021 128.198 20.5204 128.262 20.5431L128.263 20.5433L128.267 20.545C128.332 20.5682 128.395 20.5955 128.458 20.6247C128.466 20.6284 128.474 20.631 128.482 20.6347C128.488 20.6378 128.495 20.6419 128.501 20.6451C128.512 20.6505 128.523 20.6552 128.534 20.6608C128.56 20.674 128.585 20.6904 128.61 20.7044C128.636 20.7189 128.663 20.7314 128.689 20.7469C128.699 20.7534 128.71 20.7599 128.721 20.7665C128.726 20.7694 128.73 20.7729 128.735 20.7758C128.767 20.7958 128.797 20.8176 128.829 20.8394C128.858 20.8592 128.888 20.8774 128.916 20.8984C128.942 20.9184 128.965 20.9428 128.99 20.9644C128.994 20.9682 128.999 20.9709 129.003 20.9747C129.007 20.9778 129.01 20.9815 129.013 20.9847C129.23 21.1793 129.403 21.4284 129.611 21.6312C129.615 21.6358 129.618 21.6382 129.62 21.6401C129.639 21.6582 129.659 21.6764 129.68 21.6945C129.769 21.7718 129.891 21.8581 130.016 21.9043C130.05 21.9149 130.084 21.9215 130.118 21.9233C130.121 21.9235 130.124 21.9224 130.127 21.9225C130.133 21.9227 130.138 21.9208 130.144 21.9207C130.17 21.9202 130.196 21.918 130.219 21.9125C130.229 21.9095 130.238 21.9026 130.252 21.8966C130.273 21.8879 130.294 21.8808 130.314 21.8664C130.345 21.8439 130.376 21.8146 130.404 21.7767C130.408 21.7709 130.412 21.7627 130.416 21.7567C130.506 21.5995 130.525 21.367 130.561 21.213C130.639 20.8833 130.888 20.58 131.13 20.3542C131.204 20.2857 131.282 20.2226 131.362 20.1622C131.376 20.1515 131.389 20.1406 131.404 20.1301C131.416 20.1213 131.429 20.1148 131.441 20.1062C131.543 20.0345 131.648 19.9668 131.757 19.9065L131.759 19.9053L131.76 19.9049L131.763 19.9033C131.831 19.8659 131.901 19.8306 131.973 19.7965C131.979 19.7937 131.985 19.7903 131.991 19.7874C132.008 19.7792 132.026 19.7723 132.044 19.7643C132.092 19.7424 132.141 19.721 132.19 19.7007C132.226 19.686 132.262 19.6721 132.298 19.6583C132.331 19.6456 132.365 19.6332 132.399 19.6211C132.448 19.6038 132.497 19.587 132.546 19.5713C132.558 19.5677 132.57 19.5644 132.581 19.5608C132.849 19.4782 133.124 19.4204 133.402 19.389C133.418 19.3871 133.435 19.3851 133.452 19.3834C133.506 19.3779 133.56 19.3734 133.615 19.3699C133.649 19.3676 133.683 19.3661 133.718 19.3647C133.76 19.363 133.801 19.3613 133.843 19.3609C133.898 19.3603 133.953 19.3615 134.007 19.363C134.028 19.3637 134.049 19.3629 134.069 19.3638C134.074 19.364 134.078 19.3647 134.082 19.3649C134.17 19.3691 134.257 19.3764 134.343 19.3866C134.354 19.3879 134.364 19.3898 134.375 19.3911C134.456 19.4014 134.536 19.4148 134.615 19.4307C134.624 19.4325 134.633 19.4344 134.642 19.4363C134.821 19.4736 134.995 19.5237 135.162 19.5911C135.27 19.6351 135.37 19.6873 135.464 19.7442C135.517 19.7762 135.566 19.8117 135.615 19.8469C135.63 19.8578 135.643 19.8708 135.658 19.882C135.723 19.9296 135.785 19.9809 135.845 20.0359C135.849 20.0395 135.854 20.0425 135.858 20.0462C135.864 20.0518 135.871 20.0568 135.876 20.0624C135.888 20.0737 135.9 20.0849 135.912 20.0962C135.918 20.1025 135.925 20.1076 135.931 20.1139C135.942 20.125 135.951 20.1379 135.962 20.1491C136.004 20.1933 136.047 20.2374 136.087 20.2841C136.109 20.3096 136.127 20.3388 136.148 20.3649C136.208 20.4391 136.266 20.5147 136.321 20.5922C136.352 20.6345 136.386 20.6733 136.415 20.7163C136.42 20.7226 136.424 20.7286 136.429 20.735C136.466 20.7894 136.504 20.8444 136.541 20.8995L136.552 20.9165C136.609 21.0018 136.667 21.0874 136.724 21.1729C136.793 21.2712 136.863 21.3688 136.939 21.4624C137.013 21.5546 137.096 21.6556 137.15 21.7265L137.154 21.7311C137.168 21.7486 137.205 21.7836 137.208 21.8067L137.208 21.8078L137.21 21.8114C137.341 21.7007 137.398 21.5211 137.491 21.3782C137.822 20.8683 138.136 20.3481 138.452 19.8287C138.538 19.6864 138.612 19.5252 138.713 19.393C138.9 19.1498 139.347 19.0182 139.631 18.9543C140.377 18.7864 140.92 18.0903 140.974 17.3379C141.009 16.8493 140.794 16.42 140.456 16.106L140.456 16.106Z" fill="#009447"/>
<path d="M137.208 21.8067C137.205 21.7836 137.168 21.7487 137.154 21.7312C137.085 21.6409 137.012 21.5534 136.941 21.465C136.587 21.0271 136.331 20.5173 135.931 20.114C135.705 19.8858 135.443 19.7165 135.159 19.5968C134.819 19.4534 134.448 19.381 134.07 19.3639C133.359 19.3316 132.634 19.4852 131.991 19.7875C131.679 19.934 131.383 20.119 131.13 20.3543C130.888 20.58 130.639 20.8833 130.561 21.2131C130.501 21.469 130.493 21.9458 130.115 21.924C129.809 21.9063 129.556 21.5841 129.37 21.3751C129.25 21.2399 129.135 21.0985 129.003 20.9747C128.867 20.8464 128.701 20.7461 128.534 20.6608C128.183 20.4803 127.777 20.3869 127.384 20.4544C127.057 20.5103 126.776 20.6804 126.503 20.8583C126.229 21.0373 125.952 21.2269 125.622 21.2805C124.989 21.3832 124.287 21.0591 123.914 20.5441C123.803 20.3898 123.724 20.2158 123.639 20.0462C123.651 20.0699 123.664 20.094 123.671 20.1193C123.583 20.0053 123.561 19.8364 123.554 19.6973C123.546 19.5359 123.564 19.3744 123.579 19.2141C123.608 18.9165 123.627 18.6214 123.405 18.3889C123.007 17.9726 122.302 18.062 121.847 18.3264C121.356 18.6121 121.03 19.1305 120.903 19.6769C120.833 19.9775 120.823 20.2905 120.877 20.5945C120.937 20.9355 121.073 21.2561 121.218 21.5681C121.363 21.8773 121.519 22.1829 121.626 22.5079C121.704 22.7475 121.709 23.0213 121.527 23.2161C121.341 23.4151 121.052 23.4523 120.794 23.4339C120.472 23.411 120.157 23.3126 119.871 23.1636C119.582 23.0132 119.32 22.81 119.104 22.5657C118.888 22.3204 118.754 22.0168 118.527 21.7801C118.056 21.2883 117.31 21.207 116.679 21.3869C116.352 21.4802 116.051 21.6417 115.786 21.8542C115.542 22.0503 115.313 22.2815 115.01 22.3847C114.715 22.485 114.393 22.4973 114.097 22.4006C113.759 22.2904 113.453 22.1081 113.104 22.0281C112.372 21.8605 111.588 22.0943 110.923 22.3951C110.589 22.5463 110.266 22.7218 109.951 22.9091C109.639 23.0944 109.33 23.2865 109.004 23.446C108.706 23.5911 108.386 23.7091 108.052 23.7195C107.771 23.7282 107.51 23.6527 107.243 23.5764C107.107 23.5375 106.974 23.4856 106.837 23.4514C106.702 23.418 106.566 23.3971 106.431 23.3645C106.283 23.3286 106.134 23.2923 105.984 23.2578C105.843 23.2852 105.9 23.104 105.757 23.1084C105.564 23.1142 105.18 23.2473 104.996 23.2023C104.655 23.1189 104.095 23.2495 103.877 23.5406C103.54 23.991 104.081 24.7029 104.213 25.1381C104.228 25.1867 104.236 25.2371 104.247 25.2867C104.25 25.2963 104.251 25.3067 104.254 25.3164C104.263 25.3579 104.275 25.3986 104.282 25.4405C104.285 25.4565 104.29 25.4714 104.293 25.4877C104.316 25.6636 104.316 25.8394 104.298 26.0129C104.293 26.0612 104.283 26.1085 104.275 26.1563C104.268 26.1991 104.261 26.2419 104.252 26.2844C104.247 26.3029 104.246 26.3222 104.241 26.3406C104.234 26.3687 104.223 26.3954 104.215 26.4232C104.2 26.474 104.184 26.5242 104.167 26.574C104.154 26.6097 104.141 26.6451 104.127 26.6802C104.106 26.7341 104.082 26.7869 104.057 26.8394C104.04 26.8756 104.024 26.912 104.005 26.9474C103.985 26.9861 103.962 27.0234 103.94 27.0611C103.661 27.5431 103.251 27.9472 102.761 28.2155C102.208 28.5181 101.614 28.6855 101.007 28.8081L101.005 28.8203C101.367 29.2065 101.83 29.4254 102.309 29.63C102.623 29.7644 102.939 29.8976 103.235 30.0656C104.266 30.5994 105.475 31.0728 105.57 32.3839C105.611 32.9629 105.44 33.5245 105.12 34.0048C104.866 34.3866 104.426 34.6022 104.318 35.0725C104.223 35.4823 104.355 36.0244 104.676 36.3074C104.851 36.4617 105.083 36.5345 105.313 36.5728C106.245 36.728 107.224 36.5082 108.17 36.5781C109.271 36.6595 110.391 37.0444 110.696 38.2261C110.914 39.0698 110.535 39.9216 109.888 40.4554C110.45 41.0208 111.043 41.5557 111.666 42.0589C112.043 42.3628 112.08 42.7978 111.959 43.21C111.851 43.5801 112.441 43.7891 112.637 43.9873C112.945 44.2989 113.021 44.7851 113.391 45.0442C113.714 45.2705 114.111 45.3792 114.502 45.3976C115.373 45.4385 116.073 44.8992 116.688 44.3455C117.462 43.6476 117.244 41.8291 118.38 41.5331C118.6 41.4758 118.832 41.4935 119.055 41.5159C119.289 41.5392 119.522 41.5717 119.757 41.5542C120.247 41.5176 120.711 41.3307 121.169 41.1637C121.71 40.966 122.171 40.6715 122.302 40.0734C122.41 39.5783 122.224 39.0527 121.772 38.7975C121.478 38.6312 121.125 38.7438 120.812 38.7793C120.659 38.7967 120.496 38.8025 120.351 38.7425C120.187 38.6748 120.041 38.5293 119.904 38.4198C119.595 38.1731 119.149 37.8154 119.331 37.3717C119.41 37.1793 119.554 37.0216 119.684 36.8628C119.857 36.6521 120.093 36.4322 120.38 36.5692C120.416 36.5866 120.447 36.611 120.483 36.629C120.609 36.6914 120.745 36.7365 120.878 36.7806C121.317 36.9257 121.777 37.0362 122.239 37.0615C122.622 37.0825 123.136 37.0508 123.354 36.6784C123.499 36.4295 123.475 36.1099 123.401 35.8424C123.256 35.3212 122.998 34.921 122.401 34.9853C122.302 34.9958 122.202 35.0128 122.104 34.9885C122.007 34.9644 121.925 34.8938 121.924 34.7877C121.922 34.6785 121.992 34.573 122.049 34.4854C122.334 34.0537 122.811 33.826 123.313 33.7646C123.691 33.7184 124.015 33.9225 124.267 34.1877C124.421 34.3493 124.566 34.54 124.778 34.6276C125 34.7193 125.248 34.6621 125.464 34.5817C125.937 34.4055 126.391 34.1513 126.788 33.8388C126.928 33.7286 127.061 33.6106 127.187 33.4848C127.726 32.9459 127.913 33.3555 128.552 33.3377C128.749 33.3323 128.914 33.2221 129.034 33.0714C129.095 32.9953 129.144 32.9108 129.186 32.8231C129.239 32.71 129.266 32.5879 129.314 32.473C129.404 32.2602 129.556 32.0668 129.704 31.8918C129.867 31.6997 130.046 31.5213 130.235 31.3553C130.604 31.0316 131.034 30.7526 131.542 30.7543C131.795 30.7551 132.03 30.8545 132.282 30.8714C132.531 30.8883 132.784 30.8566 133.023 30.7863C133.454 30.66 133.871 30.3998 134.048 29.9703C134.11 29.8204 134.186 29.5856 134.094 29.433C133.957 29.2053 133.718 29.4377 133.549 29.4704C133.443 29.4908 133.349 29.4144 133.267 29.3591C133.154 29.2839 133.048 29.1985 132.954 29.1007C132.784 28.9226 132.648 28.7032 132.515 28.4966C132.37 28.2711 132.235 28.0373 132.128 27.7912C132.047 27.6049 131.976 27.4045 131.965 27.1998C131.957 27.0345 131.998 26.8659 132.13 26.7571C132.248 26.6603 132.424 26.6111 132.576 26.6219C132.791 26.6372 132.912 26.804 132.998 26.9835C133.055 27.1027 133.114 27.3278 133.268 27.355C133.363 27.3717 133.458 27.3078 133.53 27.2546C133.665 27.1534 133.783 27.0255 133.899 26.9027C134.172 26.6139 134.427 26.3077 134.664 25.9884C134.9 25.6691 135.122 25.3346 135.299 24.9781C135.433 24.7063 135.564 24.3984 135.559 24.0891C135.558 24.0289 135.551 23.9686 135.535 23.9104C135.521 23.8583 135.477 23.8036 135.469 23.7548C135.54 23.7141 135.646 23.7065 135.727 23.6934C135.805 23.6806 135.885 23.6722 135.965 23.6735C136.086 23.6754 136.22 23.6988 136.31 23.7887C136.378 23.8576 136.384 23.9361 136.408 24.0239C136.435 24.1237 136.534 24.2252 136.63 24.2616C136.608 24.2088 136.666 24.104 136.684 24.0546C136.722 23.9535 136.763 23.8538 136.804 23.7542C136.841 23.6668 136.882 23.5784 136.901 23.4854C136.941 23.2944 136.907 23.0869 136.907 22.893C136.906 22.5532 136.975 22.177 137.161 21.8882C137.173 21.8685 137.211 21.8298 137.208 21.8067V21.8067Z" fill="#00793F"/>
<path d="M111.666 42.0589C111.043 41.5556 110.45 41.0208 109.889 40.4553C110.535 39.9215 110.914 39.0698 110.697 38.2261C110.391 37.0444 109.271 36.6595 108.17 36.578C107.224 36.5082 106.245 36.728 105.313 36.5728C105.083 36.5344 104.851 36.4617 104.676 36.3074C104.355 36.0243 104.223 35.4823 104.318 35.0725C104.427 34.6022 104.866 34.3865 105.12 34.0048C105.44 33.5245 105.612 32.9628 105.57 32.3839C105.472 31.0264 104.179 30.5672 103.126 30.0089C102.644 29.753 102.119 29.5871 101.641 29.3215C101.42 29.1983 101.18 29.0361 101.004 28.8313L101.005 28.8203L101.007 28.808C101.615 28.6854 102.208 28.5181 102.761 28.2155C103.481 27.8218 104.033 27.1401 104.241 26.3406C104.343 25.948 104.331 25.5256 104.213 25.138C104.082 24.7029 103.541 23.9911 103.877 23.5406C104.204 23.104 104.738 23.1923 105.211 23.2436C105.727 23.2997 106.24 23.3176 106.731 23.1096C107.571 22.7529 107.263 21.9858 107.301 21.2516C107.311 21.053 107.361 20.8473 107.494 20.6998C107.622 20.5587 107.964 20.3722 108.129 20.3008C110.043 19.4692 110.146 16.6381 108.361 15.6303L108.549 15.8745C108.185 15.3818 107.649 15.2957 107.108 15.1095C106.789 14.9994 106.654 14.8254 106.5 14.5381C106.491 14.5217 106.484 14.5047 106.476 14.4876C106.457 14.4457 106.44 14.4034 106.422 14.3613C106.401 14.3141 106.38 14.2671 106.357 14.2213C106.346 14.2 106.334 14.1789 106.322 14.1584C106.31 14.1396 106.293 14.1225 106.285 14.1015L106.283 14.0926C106.281 14.0903 106.278 14.0883 106.277 14.0857C105.911 13.5637 105.644 12.4767 104.924 12.3321C104.524 12.2518 104.194 12.5624 104.108 12.9343C103.929 13.71 104.471 14.4941 104.138 15.2539C104.124 15.2856 104.106 15.3194 104.074 15.3328C104.025 15.3533 103.973 15.3169 103.933 15.2819C103.492 14.8926 103.137 14.3984 102.925 13.8488C102.588 12.9793 102.299 12.0918 101.74 11.3326C101.205 10.6073 100.781 10.5523 100.298 11.2946C99.994 11.7611 99.5467 12.4693 98.9505 12.5772C98.4311 12.6712 98.2625 12.3097 98.0659 11.913C97.7933 11.3633 97.4342 11.0935 96.7952 11.0237C96.292 10.9688 95.7838 11.2652 95.4872 11.6493C95.0242 12.2489 95.3007 12.9468 94.9607 13.5622C94.8054 13.8432 94.5269 14.0176 94.2072 14.0368C93.6004 14.0731 92.9607 13.8548 92.4316 13.5728C91.5489 13.1023 90.5457 12.9766 89.5774 13.6048C88.868 14.0649 88.4997 14.7549 88.4189 15.5852C88.3574 16.2183 88.6317 16.8659 88.4961 17.4957C88.3811 18.0301 88.0514 18.478 87.633 18.8187C87.3329 19.063 86.9881 19.2402 86.6386 19.4024C86.3898 19.5178 86.1263 19.647 85.9326 19.846C85.7152 20.0694 85.5808 20.3735 85.4887 20.6672C85.3688 21.0491 85.3455 21.4648 85.4288 21.8567C85.603 22.6764 86.2004 22.95 86.8119 23.4093C88.2315 24.4756 88.8498 26.3536 89.0099 28.0573C89.134 29.3789 88.1754 30.3504 88.1831 31.6159C88.189 32.5637 88.6559 33.4409 89.416 34.0018C89.9218 34.375 90.4459 34.5097 91.0388 34.6659C91.665 34.8308 92.4389 34.6405 93.0116 34.9852C93.8607 35.4962 94.2104 36.2854 94.2594 37.2601C94.3193 38.4516 94.4822 39.5413 95.3872 40.3986C96.1436 41.115 97.2623 41.2826 98.2007 40.8353C98.8507 40.5256 99.6146 40.5399 100.322 40.693C101.515 40.9513 100.686 42.3623 100.668 43.0609C100.656 43.5612 100.763 44.0765 101.026 44.5112C101.809 45.8035 103.428 45.9068 104.41 45.1513C104.417 45.1561 104.424 45.1622 104.431 45.1669C104.654 45.4055 104.878 45.6441 105.101 45.8827C105.511 46.3197 106.27 46.3467 106.792 46.0854C107.575 45.6927 107.453 44.911 107.07 44.2514C106.894 43.9483 106.763 43.6453 106.744 43.2897C106.734 43.1053 106.757 42.9088 106.868 42.7617C107.045 42.529 107.382 42.4939 107.671 42.5348C108.207 42.6107 108.709 42.8902 109.067 43.2947C109.426 43.6998 109.597 44.3432 110.145 44.5508C110.497 44.6847 110.814 44.5583 111.112 44.3685C111.255 44.2775 111.387 44.1593 111.519 44.006C111.96 43.4931 112.314 42.5816 111.666 42.0589L111.666 42.0589Z" fill="#3BB54A"/>
<path d="M72.1511 22.6059C71.7267 22.2842 71.4213 21.8273 71.1968 21.3442C70.8839 20.6712 70.7233 19.92 70.7565 19.1816C70.6557 19.3229 70.5533 19.4628 70.4438 19.5971C70.1667 19.9374 69.6628 19.8474 69.2891 19.7614C69.0644 19.7097 68.8269 19.6578 68.6144 19.5728C68.3717 19.4757 68.1527 19.3526 67.8891 19.3139C67.4843 19.2544 66.976 19.1756 66.6023 19.3925C66.0471 19.7147 66.16 20.5122 66.3066 21.0283C66.4199 21.4274 66.3033 21.6944 65.9238 21.8907C65.4869 22.1166 65.2385 22.297 64.8291 22.3304C64.244 22.378 64.0066 22.7713 64.0286 23.3468C64.0464 23.8125 63.88 24.1857 63.7025 24.6166C63.5858 24.8998 63.451 25.1777 63.2793 25.432C63.0714 25.7398 62.7233 25.815 62.3746 25.8354C61.9572 25.8597 61.5286 25.8443 61.1251 25.9747C60.9449 26.0329 60.7712 26.1407 60.6831 26.3084C60.6014 26.464 60.6243 26.6179 60.64 26.7827C60.4667 26.6421 60.327 26.4221 60.1822 26.2504C59.9926 26.0257 59.7989 25.8041 59.5918 25.5952C59.2023 25.2023 58.7263 24.7847 58.1625 24.6877C57.7347 24.6141 57.3411 24.785 57.0379 25.0836C56.2344 25.8751 55.112 25.4735 54.218 25.0843C53.6387 24.8322 52.7057 24.1883 52.0744 24.615C51.2232 25.1905 51.1389 26.3371 51.3004 27.2629C51.3903 27.7781 51.5594 28.2859 51.8021 28.7495C52.0052 29.1373 52.6314 29.7839 52.2619 30.2077C52.6538 30.2191 53.0462 30.2661 53.4233 30.334C53.6784 30.3799 53.9543 30.4221 54.1945 30.5228C54.2684 30.5537 54.5137 30.7519 54.5896 30.717C54.939 30.5564 55.3099 30.4311 55.6887 30.3323C56.2202 30.1938 57.3661 30.249 58.1332 30.6314C58.1239 30.6345 58.1153 30.6396 58.106 30.6425L58.1086 30.6438C58.2354 30.6073 58.3572 30.5518 58.4743 30.474C58.6268 30.3727 58.7681 30.2509 58.8991 30.1392C59.2253 29.8611 59.5375 29.5922 59.869 29.352C60.2004 29.1118 60.5512 28.9002 60.9542 28.7366C61.2959 28.5978 61.6516 28.4943 62.0144 28.426C62.3771 28.3578 62.7468 28.3247 63.1162 28.327C63.855 28.3316 64.5929 28.4774 65.2727 28.7646C65.2776 28.7247 65.2871 28.6838 65.3002 28.6424C65.3055 28.6258 65.3095 28.6095 65.3167 28.5926C66.0854 26.7832 67.5929 25.357 69.3846 24.6097C69.8863 24.4004 70.4089 24.2414 70.9454 24.1457L70.9879 24.1279L71.0304 24.11L71.0982 24.1082L71.166 24.1064C71.3258 24.0831 71.4866 24.0665 71.648 24.0538C71.7073 23.8898 71.7909 23.7332 71.9064 23.5952C72.177 23.2718 72.5329 23.0901 72.9163 22.9727C72.6408 22.9061 72.3773 22.7775 72.1511 22.6059V22.6059Z" fill="#00793F"/>
<path d="M74.0821 11.6021C74.4853 11.8816 74.9982 12.0669 75.4666 11.9212C75.9206 11.7799 76.2326 11.361 76.4346 10.9304C76.9146 9.90706 76.9553 8.69911 77.5555 7.74129C77.9186 7.16174 78.4652 6.71234 78.8122 6.12295C79.1224 5.59603 79.2583 4.96831 79.1938 4.36016C79.1678 4.11612 79.1005 3.84184 78.8787 3.68933L78.8749 3.71813C78.0457 3.61811 77.1335 3.82257 76.4991 4.38629C75.7317 5.06804 75.4594 6.19606 74.6525 6.83034C74.1305 7.24062 73.4145 7.41789 73.0291 7.95862C72.7933 8.28941 72.7202 8.71251 72.7328 9.1186C72.7631 10.0955 73.2792 11.0454 74.0821 11.6021L74.0821 11.6021Z" fill="#8EC741"/>
<path d="M88.4107 15.8394C85.753 14.8074 85.2036 18.3426 83.749 16.9491C83.6469 16.8513 83.5314 16.7723 83.4085 16.7106C83.1986 16.5584 82.9296 16.4645 82.5997 16.4645C82.1782 16.4645 81.7803 16.634 81.524 16.9745C80.9737 17.7055 80.2224 18.2409 79.3135 18.4159C79.2145 18.4349 79.1089 18.449 79.0155 18.411C78.82 18.3314 78.7779 18.0817 78.7088 17.8822C78.4734 17.2027 77.6442 16.8712 76.9367 16.998C76.2292 17.1248 75.6356 17.6024 75.1406 18.1239C74.8111 17.1738 73.7979 16.5098 72.7957 16.5871C72.3712 16.6198 71.9527 16.776 71.6289 17.0525C71.282 17.3486 71.0574 17.7671 70.9209 18.2024C70.5991 19.2287 70.743 20.3688 71.1964 21.3442C71.4209 21.8272 71.7263 22.2841 72.1507 22.6059C72.3774 22.7779 72.6418 22.9054 72.9179 22.9721C73.1768 22.893 73.4479 22.8423 73.7151 22.8002C74.5098 22.6751 75.2975 22.497 76.0609 22.2415C76.2489 22.1785 76.4459 22.0864 76.5645 21.9211C76.682 21.7573 76.7135 21.5471 76.8129 21.3734C76.9474 21.1381 77.1389 20.9375 77.3677 20.7924C78.1702 20.2837 79.2883 20.3883 80.1 20.8165C81.0384 21.3115 81.8166 21.669 82.6662 20.7574C83.0969 20.2952 83.2773 19.6608 83.731 19.2178C84.2571 18.7043 84.9263 18.4378 85.6615 18.4379C86.3872 18.4379 86.6212 18.8887 86.5828 19.429L86.5827 19.429C86.6012 19.4203 86.6198 19.4109 86.6382 19.4024C86.9877 19.2403 87.3325 19.0631 87.6326 18.8187C88.0511 18.478 88.3807 18.0301 88.4957 17.4958C88.6132 16.9499 88.4235 16.3908 88.4107 15.8394H88.4107Z" fill="#8EC741"/>
<path d="M88.976 27.7511C88.773 26.1327 88.1469 24.4121 86.8119 23.4094C86.2004 22.9501 85.603 22.6764 85.4288 21.8567C85.3455 21.4648 85.3688 21.0491 85.4887 20.6672C85.5808 20.3735 85.7152 20.0694 85.9326 19.846C86.112 19.6617 86.3511 19.538 86.5831 19.4289C86.6216 18.8887 86.3875 18.4379 85.6619 18.4379C84.9267 18.4378 84.2574 18.7042 83.7314 19.2178C83.2776 19.6608 83.0973 20.2952 82.6665 20.7574C81.817 21.669 81.0388 21.3115 80.1004 20.8165C79.2887 20.3883 78.1706 20.2837 77.3681 20.7924C77.1393 20.9374 76.9477 21.1381 76.8132 21.3734C76.7139 21.5471 76.6823 21.7572 76.5648 21.9211C76.4463 22.0864 76.2493 22.1785 76.0613 22.2414C75.2979 22.497 74.5102 22.6751 73.7154 22.8002C73.0517 22.9047 72.3601 23.0529 71.9064 23.5952C71.1753 24.4691 71.5894 26.0519 72.9026 26.0015C72.9326 26.0004 72.9563 25.9993 72.976 25.9984L72.9419 26.1132C72.8342 26.4751 72.5345 26.4048 72.2218 26.4209C71.2645 26.4703 69.9041 26.5174 69.5437 27.6096C69.3722 28.1293 69.564 28.6047 69.9154 28.9952C70.0821 29.1805 70.2705 29.3442 70.4616 29.5036C70.591 29.6116 70.7548 29.7164 70.7758 29.8964C70.8168 30.2479 70.636 30.5576 70.4302 30.8264C70.2359 31.0803 69.888 31.3149 69.8845 31.6666C69.8829 31.821 69.9582 31.9682 70.0614 32.083C70.3483 32.4026 70.7884 32.5649 71.1801 32.711C71.5326 32.8424 71.9418 32.9697 72.143 33.3158C72.2544 33.5074 72.2894 33.74 72.3823 33.9418C72.4937 34.184 72.636 34.411 72.7875 34.6298C72.807 34.6579 72.8274 34.6865 72.8559 34.7053C72.8904 34.728 72.9329 34.734 72.9739 34.7387C73.4631 34.7941 73.9479 34.7204 74.4193 34.5891C74.8016 34.4827 75.1708 34.3217 75.5165 34.1177L75.6403 34.0623L75.8525 33.9672C75.9035 33.9959 75.9555 34.0225 76.0076 34.0486C76.2162 34.1531 76.4341 34.236 76.665 34.2793C76.7453 34.2944 76.825 34.3043 76.9039 34.3092C77.3377 34.3359 77.7456 34.208 78.0977 33.9619C78.1937 33.8948 78.2868 33.8217 78.3736 33.7372C78.6613 33.4571 78.84 33.088 78.9489 32.6992C79.057 32.3129 79.0468 31.8491 79.3324 31.5432C79.5475 31.313 79.825 31.1489 80.118 31.0382C80.2055 31.0051 80.2949 30.9765 80.3856 30.952C80.5667 30.9031 80.7524 30.8706 80.935 30.852C81.0136 30.844 81.0922 30.8425 81.1709 30.838C81.3036 30.8305 81.4911 30.8967 81.6101 30.8445C81.6274 30.7147 81.6637 30.5871 81.7271 30.4721C81.8077 30.3258 81.9012 30.186 82.0111 30.06C82.119 29.9364 82.2396 29.8406 82.3757 29.7491C82.6504 29.5643 82.9501 29.4167 83.264 29.312C83.4649 29.245 83.6562 29.169 83.8682 29.1369C84.1396 29.0958 84.42 29.0588 84.6615 28.9185C84.8612 28.8025 84.9368 28.568 85.0139 28.3647C85.2015 27.8703 85.6734 27.4206 86.2094 27.3379C86.707 27.2612 87.228 27.4003 87.7092 27.5167C87.9577 27.5768 88.2061 27.6389 88.4574 27.6867C88.4937 27.6936 88.7808 27.7303 88.976 27.7511V27.7511Z" fill="#009447"/>
<path d="M68.7269 41.7979L68.7346 41.7939C68.7574 41.7257 68.7825 41.6576 68.8141 41.5902C69.0486 41.0901 69.4919 40.7347 70.0179 40.5687C70.2983 40.4802 70.605 40.5197 70.8853 40.4861L70.8949 40.4851L70.8929 40.4411L70.8306 40.2228C70.0627 38.9523 69.9745 36.9742 71.6825 36.4628C71.9465 36.3837 72.2203 36.3457 72.494 36.3205C72.6563 36.3056 72.9758 36.2881 73.0425 36.085C73.0749 35.986 73.0589 35.9084 73.0646 35.804C73.0776 35.5638 73.0959 35.3215 73.0185 35.0909C72.9965 35.0253 72.8884 34.7998 72.8052 34.6535C72.8081 34.6574 72.8122 34.66 72.8152 34.6637C72.8057 34.6526 72.7958 34.6419 72.7875 34.6298C72.636 34.411 72.4937 34.1841 72.3822 33.9419C72.2893 33.74 72.2543 33.5074 72.143 33.3158C71.9418 32.9697 71.5326 32.8424 71.1801 32.711C70.7883 32.565 70.3483 32.4026 70.0613 32.0831C69.9582 31.9683 69.8829 31.821 69.8845 31.6667C69.888 31.315 70.2359 31.0804 70.4302 30.8265C70.6359 30.5577 70.8168 30.248 70.7758 29.8964C70.7548 29.7165 70.591 29.6116 70.4616 29.5037C70.2705 29.3443 70.0821 29.1805 69.9154 28.9952C69.564 28.6048 69.3721 28.1294 69.5437 27.6096C69.9041 26.5175 71.2645 26.4703 72.2218 26.421C72.5234 26.4054 72.8111 26.4663 72.9279 26.1464L72.9419 26.0997L72.972 25.9986C72.9529 25.9995 72.931 26.0005 72.9026 26.0015C71.7899 26.0442 71.3259 24.9153 71.6539 24.0377C70.9743 24.0881 70.3026 24.2423 69.6656 24.4843C69.5714 24.5201 69.4776 24.5572 69.3846 24.5961C67.5931 25.3434 66.0853 26.7696 65.3167 28.579C65.3095 28.5959 65.3055 28.6123 65.3002 28.6288C65.2871 28.6703 65.2776 28.7111 65.2727 28.751C64.5929 28.4638 63.855 28.318 63.1162 28.3135C62.7468 28.3112 62.3771 28.3442 62.0143 28.4125C61.6516 28.4807 61.2959 28.5843 60.9542 28.723C60.5511 28.8866 60.2004 29.0982 59.869 29.3385C59.5376 29.5787 59.2253 29.8476 58.8991 30.1257C58.7682 30.2374 58.6268 30.3592 58.4743 30.4605C58.3582 30.5377 58.2354 30.6026 58.106 30.6425C58.2263 30.7013 58.3431 30.7659 58.4463 30.8534C58.5796 30.9666 58.6801 31.1155 58.7492 31.2753C58.8271 31.4557 58.8508 31.6679 58.7711 31.8515C58.7713 31.8732 58.772 31.8947 58.7713 31.9165C58.7674 32.0225 58.7169 32.1767 58.7543 32.2798C58.8021 32.4118 58.9633 32.4857 59.0697 32.5631C59.2198 32.6724 59.3633 32.7922 59.5047 32.9124C59.9225 33.2674 60.353 33.657 60.6806 34.0994C60.7171 34.1489 61.0584 34.6628 61.0042 34.6981C60.8064 34.8271 60.6088 34.9561 60.411 35.0851C59.2958 35.8126 59.6567 37.7617 61.1221 37.7118C61.7642 37.6899 62.6984 37.5655 63.2339 38.0065C63.6491 38.3485 63.7726 38.9828 63.8668 39.483C64.0617 40.5185 63.9433 41.6471 64.5428 42.5659C65.6142 44.2081 68.1258 43.4838 68.7269 41.7979V41.7979Z" fill="#8EC741"/>
<path d="M107.069 46.4936C106.889 46.3693 106.6 46.3016 106.32 46.2306C105.879 46.2986 105.398 46.1998 105.101 45.8827C104.881 45.648 104.661 45.4132 104.441 45.1784C104.43 45.1702 104.418 45.1625 104.406 45.1543C103.423 45.9064 101.808 45.8018 101.026 44.5112C100.763 44.0766 100.656 43.5613 100.668 43.0609C100.686 42.3623 101.515 40.9514 100.322 40.6931C99.6146 40.5399 98.8508 40.5256 98.2008 40.8354C97.2624 41.2826 96.1436 41.1151 95.3873 40.3986C94.4822 39.5414 94.3194 38.4517 94.2595 37.2602C94.2104 36.2854 93.8608 35.4963 93.0117 34.9852C92.5218 34.6905 91.8854 34.7857 91.3195 34.7167L91.2628 34.7219L91.2382 34.7047C91.1707 34.6943 91.1036 34.683 91.0389 34.6659C90.446 34.5098 89.9219 34.3751 89.4161 34.0019C88.656 33.4409 88.1891 32.5638 88.1832 31.6159C88.1755 30.3505 89.1341 29.3789 89.0099 28.0573C89.0009 27.9615 88.99 27.865 88.978 27.7683C88.9761 27.7624 88.9736 27.7565 88.9717 27.7506C88.7766 27.7298 88.4935 27.6936 88.4575 27.6867C88.2061 27.639 87.9578 27.5768 87.7092 27.5167C87.2281 27.4003 86.7071 27.2612 86.2095 27.338C85.6735 27.4206 85.2016 27.8703 85.014 28.3647C84.9369 28.5681 84.8613 28.8025 84.6616 28.9186C84.4201 29.0588 84.1397 29.0958 83.8683 29.1369C83.6563 29.169 83.4649 29.245 83.2641 29.312C82.9502 29.4168 82.6505 29.5644 82.3758 29.7491C82.2397 29.8407 82.1191 29.9364 82.0112 30.0601C81.9013 30.186 81.8078 30.3258 81.7272 30.4721C81.6638 30.5871 81.6275 30.7148 81.6102 30.8445C81.6086 30.8453 81.6063 30.845 81.6047 30.8457C81.5995 30.8988 81.5929 30.9563 81.5826 31.0215C81.5223 31.3994 81.4767 31.7802 81.4239 32.1592C81.3567 32.6418 81.3014 33.1245 81.2558 33.6099C81.1893 34.3234 81.1978 35.0472 81.1988 35.7692C79.988 35.7319 78.1916 35.8535 77.2445 36.719C76.8422 37.0865 76.6709 37.6421 76.8445 38.169C76.9276 38.4202 77.0689 38.6282 77.2423 38.8227C77.2305 39.0214 77.2185 39.2201 77.2067 39.4188C76.9681 40.0125 76.1485 41.2724 76.1268 41.9711C76.0797 43.4863 78.1804 43.8378 78.0077 45.3636C77.8954 46.3562 79.1962 46.2454 80.1741 46.3996C80.5818 46.464 80.9409 46.7071 81.3294 46.8457C81.3416 46.8501 81.3504 46.8526 81.3597 46.8554C81.4405 46.9275 81.6591 47.1411 81.8089 47.2543C81.8235 47.2888 81.849 47.3612 81.8795 47.4447C81.6726 47.4776 81.467 47.5148 81.2726 47.599C80.785 47.8103 80.4308 48.26 80.362 48.7897C80.3269 49.06 80.2888 49.3061 80.435 49.5545C80.5406 49.7337 80.7019 49.874 80.8751 49.989C81.0749 50.1216 81.3005 50.2265 81.5398 50.2408C81.8811 50.2612 82.1969 50.0954 82.4572 49.8893C82.6197 49.7606 82.7707 49.6003 82.9658 49.5214C83.1788 49.4353 83.3545 49.5097 83.54 49.6163C83.8706 49.8063 84.2297 49.9369 84.5916 50.0532C84.9415 50.1656 85.3174 50.3464 85.6918 50.2441C86.2319 50.0965 86.4853 49.4701 86.7311 49.0261C86.9182 48.6872 87.0338 48.4151 87.383 48.2324C88.0809 47.8674 88.1555 48.663 88.1882 49.164C88.2337 49.8625 88.2522 50.492 88.9884 50.777C89.6741 51.0425 90.6935 50.9674 91.3281 50.5928C92.1779 50.0911 92.2639 48.9979 92.6638 48.1904C92.7042 48.1089 92.7541 48.0201 92.8414 47.9932C93.3115 47.8503 93.781 49.6305 93.9498 49.9248C94.6075 48.9733 95.8525 48.4531 96.9713 48.3382C97.6017 48.2735 98.7639 48.2627 99.1377 48.9169C99.5472 49.6332 100.067 50.4491 100.737 50.9496C101.224 51.3138 101.888 51.2883 102.439 51.0688C102.715 50.9588 102.882 50.7903 102.829 50.4841C102.756 50.0619 102.238 49.5372 102.997 49.4969C103.379 49.4765 103.833 49.8216 104.147 49.999C104.584 50.2455 105.01 50.5009 105.484 50.6727C105.574 50.7055 105.669 50.7363 105.764 50.7251C105.899 50.7095 106.013 50.6106 106.081 50.4934C106.465 49.8366 105.925 48.7254 106.861 48.42C107.057 48.3562 107.264 48.331 107.458 48.2616C108.568 47.8647 107.612 46.8691 107.069 46.4936L107.069 46.4936Z" fill="#00793F"/>
<path d="M80.875 49.989C80.7018 49.874 80.5405 49.7336 80.4349 49.5544C80.2887 49.3061 80.3268 49.0599 80.3619 48.7897V48.7896C80.4049 48.4585 80.5594 48.1588 80.7883 47.9289C80.8798 47.8369 80.9833 47.7562 81.0962 47.6891C81.1527 47.6555 81.2116 47.6254 81.2725 47.599C81.4669 47.5147 81.6725 47.4776 81.8794 47.4447C81.8489 47.3611 81.8234 47.2887 81.8088 47.2542C81.659 47.1411 81.4404 46.9275 81.3596 46.8553C81.3503 46.8526 81.3415 46.8501 81.3293 46.8457C80.9408 46.707 80.5817 46.4639 80.174 46.3996C79.1961 46.2453 77.8953 46.3561 78.0076 45.3635C78.1803 43.8378 76.0796 43.4862 76.1267 41.9711C76.1484 41.2724 76.968 40.0124 77.2066 39.4187C77.2184 39.22 77.2304 39.0213 77.2421 38.8226C77.1079 38.6721 76.9938 38.5127 76.9101 38.3321C76.9065 38.3254 76.9019 38.3196 76.8984 38.3128C76.8125 38.1453 76.7777 37.9624 76.7777 37.7786L76.7776 37.7632C76.7782 37.7159 76.7803 37.669 76.7859 37.6219C76.7903 37.5769 76.7978 37.5326 76.8067 37.4884C76.8094 37.4762 76.8114 37.464 76.8144 37.4518C76.8782 37.1754 77.0255 36.919 77.2444 36.719C78.1915 35.8534 79.9879 35.7319 81.1987 35.7691C81.1977 35.0471 81.1892 34.3233 81.2557 33.6098C81.3013 33.1245 81.3566 32.6418 81.4238 32.1592C81.4766 31.7802 81.5222 31.3993 81.5825 31.0214C81.5928 30.9562 81.5994 30.8988 81.6046 30.8456L81.6069 30.8451C81.4878 30.8951 81.3025 30.8306 81.1709 30.838C81.0922 30.8425 81.0135 30.844 80.935 30.852C80.7524 30.8706 80.5667 30.9031 80.3856 30.952C80.2949 30.9765 80.2054 31.0051 80.118 31.0382C80.0522 31.063 79.9875 31.0915 79.9238 31.122C79.9062 31.1304 79.8889 31.1395 79.8716 31.1483C79.823 31.173 79.7754 31.1995 79.7288 31.2277C79.7128 31.2373 79.6966 31.2466 79.6809 31.2567C79.6217 31.2947 79.5641 31.3352 79.5094 31.3794C79.5019 31.3854 79.4952 31.3923 79.4878 31.3985C79.4411 31.4375 79.3967 31.4791 79.3542 31.523C79.3415 31.536 79.3293 31.5496 79.3171 31.5631C79.0489 31.8689 79.0548 32.3207 78.9488 32.6992C78.8556 33.0323 78.7063 33.3473 78.4859 33.6079C78.4521 33.6528 78.4156 33.6964 78.3736 33.7371C78.2868 33.8217 78.1936 33.8948 78.0977 33.9619C78.0097 34.0234 77.9182 34.0776 77.8236 34.1237C77.54 34.2623 77.2293 34.3292 76.9039 34.3091C76.825 34.3043 76.7453 34.2944 76.665 34.2793C76.434 34.2359 76.2162 34.1531 76.0076 34.0486C75.9556 34.0225 75.9035 33.9959 75.8525 33.9672L75.5163 34.1179C75.313 34.2378 75.1007 34.3408 74.8831 34.4287C74.731 34.4902 74.5766 34.5453 74.4193 34.5891C73.9479 34.7204 73.4631 34.7941 72.9739 34.7386C72.9329 34.734 72.8904 34.728 72.8559 34.7053C72.8356 34.6919 72.8199 34.6731 72.8052 34.6535C72.8884 34.7997 72.9965 35.0253 73.0185 35.0908C73.0959 35.3214 73.0776 35.5637 73.0646 35.804C73.0589 35.9084 73.0749 35.9859 73.0425 36.0849C72.9758 36.2881 72.6563 36.3055 72.494 36.3205C72.2203 36.3457 71.9465 36.3837 71.6825 36.4627C69.9745 36.9741 70.0627 38.9522 70.8306 40.2227L70.8929 40.441L70.8949 40.4851L70.8853 40.486C70.605 40.5196 70.2983 40.4802 70.0179 40.5687C69.4919 40.7346 69.0486 41.0901 68.8141 41.5902C68.5227 42.2119 68.6096 42.881 68.9873 43.4443C69.1098 43.627 69.3323 43.785 69.475 43.9504C69.5215 44.0043 69.4723 44.1805 69.4279 44.2194C69.3783 44.2629 69.3119 44.2807 69.248 44.2972C68.934 44.3781 68.6235 44.4213 68.3249 44.5575C67.9035 44.7498 67.5617 45.0499 67.2639 45.4004C66.8807 45.8514 66.8386 46.4937 66.8254 47.0601L66.792 48.5088C66.9049 48.5135 67.0197 48.5325 67.135 48.572C68.3438 48.9865 68.9329 49.905 69.0088 51.1676C69.0394 51.6756 68.9038 52.174 68.9586 52.6827C69.0002 53.0689 69.1515 53.346 69.355 53.6649C69.4212 53.7685 69.5241 54.0522 69.6479 54.1482C69.9093 53.6561 70.3314 53.0889 71.3891 53.2838C72.1837 53.4303 73.6105 54.9686 74.4118 54.8946C76.021 54.746 77.0393 52.1407 78.2965 51.2295C79.3119 50.4935 80.3288 51.4386 81.3393 50.696C81.541 50.5477 81.4404 50.3559 81.2795 50.1872C81.1368 50.1413 81.0004 50.0722 80.875 49.989L80.875 49.989Z" fill="#3BB54A"/>
<path d="M66.792 48.5088L66.8255 47.0601C66.8386 46.4937 66.8807 45.8514 67.2639 45.4004C67.5617 45.0499 67.9035 44.7498 68.325 44.5575C68.6235 44.4213 68.934 44.3781 69.248 44.2972C69.3119 44.2807 69.3784 44.2629 69.428 44.2194C69.4723 44.1805 69.5215 44.0043 69.475 43.9504C69.3323 43.785 69.1098 43.627 68.9874 43.4443C68.6505 42.942 68.5469 42.3558 68.7346 41.7939L68.7269 41.7979C68.1258 43.4837 65.6143 44.2081 64.5429 42.5659C63.9434 41.647 64.0617 40.5185 63.8668 39.4829C63.7726 38.9828 63.6492 38.3484 63.2339 38.0064C62.6984 37.5654 61.7642 37.6899 61.1222 37.7117C59.6567 37.7616 59.2959 35.8125 60.4111 35.085C60.6088 34.9561 60.8065 34.8271 61.0042 34.6981C61.0584 34.6628 60.7172 34.1488 60.6806 34.0994C60.353 33.6569 59.9225 33.2674 59.5047 32.9123C59.3633 32.7922 59.2198 32.6724 59.0698 32.5631C58.9634 32.4857 58.8022 32.4118 58.7543 32.2798C58.717 32.1766 58.7675 32.0224 58.7713 31.9165C58.7721 31.8947 58.7713 31.8731 58.7712 31.8515C58.8508 31.6678 58.8272 31.4556 58.7492 31.2752C58.6802 31.1155 58.5796 30.9665 58.4463 30.8534C58.3432 30.7658 58.2264 30.7013 58.106 30.6424C58.1153 30.6396 58.124 30.6345 58.1332 30.6314C57.3661 30.2489 56.2203 30.1937 55.6888 30.3323C55.3099 30.4311 54.939 30.5563 54.5897 30.717C54.5138 30.7518 54.2684 30.5537 54.1946 30.5227C53.9543 30.4221 53.6785 30.3799 53.4233 30.3339C52.717 30.2067 51.9571 30.1488 51.2467 30.2719C49.8568 30.5127 48.4689 32.0002 49.4092 33.4244C49.4207 33.4419 49.434 33.4582 49.4461 33.4752C48.4731 33.8281 47.2886 33.9681 46.3907 33.4571C44.5579 32.4142 43.9917 33.7298 44.0175 34.1202C44.0428 34.5111 42.9673 30.7225 41.5733 31.8274C40.1788 32.9319 39.4369 33.6264 40.7429 34.9191C42.0492 36.2123 43.5234 35.5826 42.5576 37.4019C42.2558 37.9703 41.8413 38.7307 41.9282 39.3975C41.9697 39.7159 42.2359 40.2022 42.6317 40.0754C42.7693 40.0313 42.8754 39.9155 43.014 39.8728C43.164 39.8265 43.5966 39.8623 43.5876 40.0872C43.5702 40.4574 42.9902 40.4522 42.7489 40.5739C41.7379 41.0836 43.5489 41.723 43.8007 42.0107C44.0588 42.3054 44.1741 42.6613 44.2397 43.0407C44.3455 43.652 44.312 44.3168 45.1162 44.3101C46.6494 44.2972 44.294 45.9081 46.0741 46.7646C47.8541 47.6212 52.408 44.0026 52.0762 45.0642C51.2334 47.7601 56.2403 44.6933 56.8411 45.0051C57.4419 45.3163 53.5239 46.227 55.871 48.5082C57.1085 49.7109 57.7798 48.0132 57.1707 49.1728C56.8802 49.726 57.7566 50.1668 58.1501 50.2925C58.5261 50.4127 58.9349 50.4407 59.3209 50.3529C59.5155 50.3087 59.7034 50.2354 59.8747 50.1324C59.993 50.0612 60.0654 49.934 60.1831 49.8572C60.2259 49.8293 60.2784 49.8043 60.3265 49.8217C60.3646 49.8354 60.3894 49.8728 60.4024 49.9111C60.4485 50.0465 60.3733 50.1993 60.2606 50.2873C60.1479 50.3753 60.0051 50.4128 59.8666 50.4483C59.581 50.5214 59.293 50.5884 59.0091 50.6678C58.9221 50.6921 58.3005 50.8579 58.3005 50.933C57.9889 51.0835 57.7147 51.302 57.5234 51.5926C57.4423 51.7158 57.3842 51.8534 57.3204 51.9859C57.8839 52.0232 58.4366 52.2022 58.9334 52.4681C59.2223 52.6226 59.4851 52.8441 59.7031 53.0878C59.9625 53.3779 60.1364 53.6957 60.4712 53.9138C60.7648 54.105 61.104 54.2175 61.4453 54.2871C61.7517 54.3496 62.4506 54.425 63.1413 54.3902C63.3877 54.3665 63.6329 54.3371 63.8763 54.301C64.5709 54.1555 65.0782 53.822 64.8622 53.1349C64.6348 52.4124 63.8164 51.9814 63.6769 51.2055C63.6566 51.0927 63.7595 50.3877 63.7454 50.3727L63.728 50.3542L63.756 50.3454C63.938 49.8749 64.3555 49.5058 65.0111 49.5058C65.1575 49.5058 65.2907 49.5258 65.4136 49.5595C65.6035 48.934 66.2167 48.4387 66.8843 48.5188C66.8535 48.5154 66.8226 48.5101 66.792 48.5088L66.792 48.5088Z" fill="#009447"/>
<path d="M72.2124 63.2815C71.1666 61.4019 69.8379 61.5344 69.743 60.5978C69.6477 59.6611 70.7254 59.4199 71.028 58.5066C71.2135 57.9466 70.3712 57.48 69.8979 56.9803C70.0185 56.9199 70.1369 56.8411 70.2503 56.7363C70.3148 56.6767 70.3792 56.6171 70.4438 56.5575C71.2825 55.7821 70.7347 54.3842 69.708 54.1792C69.5572 54.148 69.4314 53.7849 69.3548 53.6649C69.1513 53.3459 68.9999 53.0689 68.9583 52.6827C68.9035 52.1739 69.0391 51.6756 69.0086 51.1676C68.9327 49.905 68.3435 48.9865 67.1347 48.572C66.3751 48.3115 65.6269 48.8561 65.4133 49.5595C65.2904 49.5258 65.1572 49.5058 65.0107 49.5058C64.3552 49.5058 63.9377 49.8749 63.7557 50.3454L63.7277 50.3542L63.7451 50.3727C63.7592 50.3877 63.6563 51.0927 63.6766 51.2054C63.8161 51.9814 64.6345 52.4123 64.8619 53.1349C65.346 54.6745 62.2008 54.4412 61.445 54.2871C61.1037 54.2175 60.7645 54.105 60.4709 53.9138C60.1361 53.6957 59.9622 53.3779 59.7027 53.0878C59.4848 52.8441 59.222 52.6226 58.9331 52.468C58.2835 52.1204 57.5385 51.9191 56.7984 51.9925C56.4158 52.0304 56.083 52.1244 55.8022 52.4053C55.7381 52.4695 55.6785 52.5448 55.6253 52.6267C55.6045 52.6519 55.5814 52.6749 55.5623 52.7014C55.2776 53.2597 53.3025 53.3281 52.4922 52.7684C50.6865 51.5209 50.7098 49.7987 48.7869 51.7483C48.1739 52.3696 47.3441 52.6655 46.4858 52.7223C46.2903 52.7353 46.0942 52.7362 45.8984 52.7294C45.651 52.7208 45.6137 52.6827 45.4238 52.5508C45.0617 52.2991 44.5933 52.255 44.1729 52.3657C44.0718 52.3923 43.9721 52.4272 43.8818 52.4798C43.7478 52.558 43.6385 52.6732 43.5483 52.7995C43.3407 53.0902 43.2387 53.4391 43.2564 53.7955C43.3021 54.7182 43.968 55.452 44.8922 55.5194C45.6765 55.5766 46.4226 55.3027 47.2104 55.4724C47.7046 55.5789 48.1568 55.8237 48.4881 56.2093C48.9839 56.7865 49.1876 57.6102 49.1427 58.3602C49.1418 58.3757 49.1545 58.4028 49.1395 58.4065C48.3883 58.5905 47.9745 60.3184 49.8465 60.2956C49.8736 60.2952 49.8964 60.2967 49.9227 60.2967C50.0056 60.9228 50.4531 61.491 51.2682 61.491C51.7335 61.491 52.1608 61.2384 52.4035 60.8443C52.6398 60.4606 52.6672 59.9755 52.607 59.5394C52.5834 59.3678 52.5574 59.16 52.4801 59.0026C52.4282 58.8969 52.2237 58.7432 52.262 58.6114C52.3055 58.4619 53.2273 58.4683 53.338 58.457C55.4949 58.2384 55.2088 56.3239 56.0528 56.5942C56.9926 56.8953 55.8442 58.1773 55.7244 58.6569C55.4416 59.7888 56.0337 60.7876 57.0864 61.1939C57.4721 61.3427 57.8366 61.2285 58.17 61.0146C58.3311 60.9113 58.4712 60.7592 58.6374 60.667C59.0851 60.4185 59.3015 60.8285 59.5102 61.1652C59.8385 61.6949 60.2005 62.2086 60.6439 62.649C60.995 62.9977 61.5888 63.4945 62.1213 63.2281C63.5563 62.5698 61.8626 59.9109 62.6125 59.5448C63.3629 59.1782 64.5683 60.4181 65.4345 61.3638C66.3007 62.31 66.7214 63.1895 67.4751 64.3416C68.2293 65.4942 73.2582 65.1615 72.2124 63.2815V63.2815Z" fill="#8EC741"/>
<g opacity="0.5">
<path d="M96.8084 48.4936L96.7671 48.507C96.8786 48.468 96.9271 48.4552 96.8084 48.4936Z" fill="#1A6935"/>
<path d="M83.3257 48.534V48.5334L83.3273 48.534H83.3257Z" fill="#1A6935"/>
</g>
<path d="M1.36661 47.7629C2.62061 47.7629 3.87654 47.7848 5.13054 47.7657C6.03246 47.7524 6.34454 47.3196 7.00442 46.6908C7.81915 45.9153 8.81302 45.3881 9.76639 44.8728C10.9151 44.2517 12.1272 44.3089 13.3688 44.2998C14.3189 44.2927 14.9864 44.6125 15.8687 44.8328C16.5029 44.9905 17.2114 44.4795 17.815 44.2479C18.1701 44.1116 20.1947 43.1556 20.2149 43.9293C20.2412 44.9441 20.1674 45.8764 19.6084 46.7614C19.2015 47.4058 18.6474 47.9631 18.1838 48.5537C17.7564 49.0971 17.2852 49.8922 16.7678 50.3364C16.2589 50.7726 15.5648 51.0467 15.0097 51.4194C14.1197 52.0172 13.7319 52.666 13.4126 53.769C13.1749 54.5898 13.0124 55.5756 12.705 56.3572C12.3814 57.1784 10.903 58.18 10.0256 58.2708C9.05434 58.3714 8.8668 57.1651 8.75107 56.3383C8.6677 55.7453 8.91021 55.3649 8.98459 54.8202C9.09113 54.0354 9.23276 53.0953 8.94398 52.3332C8.56929 51.3443 7.6577 51.3175 6.72046 51.2102C5.83569 51.1091 4.86183 51.1187 4.25817 51.9023C2.82931 53.7585 0.854418 51.4676 0.225036 49.7234C-0.196145 48.5551 -0.0660697 47.7748 0.95733 47.8196" fill="#3BB54A"/>
<g style="mix-blend-mode:multiply">
<path d="M93.2722 13.8965C93.2621 13.8932 93.2519 13.8897 93.2417 13.8862C93.2461 13.8922 93.2504 13.8984 93.2548 13.9044C93.2607 13.9023 93.2662 13.8987 93.2722 13.8965Z" fill="#414A9F"/>
</g>
<g style="mix-blend-mode:multiply">
<path d="M92.1757 46.7246C92.1709 46.7336 92.1647 46.741 92.1602 46.7502C92.1647 46.741 92.1709 46.7336 92.1757 46.7246ZM92.0551 47.0043C92.0606 46.9845 92.0668 46.9649 92.0736 46.9453C92.0809 46.9233 92.0884 46.9014 92.0971 46.88C92.1061 46.8577 92.1169 46.8356 92.1276 46.8136C92.1169 46.8356 92.1061 46.8577 92.0971 46.88C92.0884 46.9014 92.0809 46.9233 92.0736 46.9453C92.0668 46.9649 92.0606 46.9845 92.0551 47.0043C92.0486 47.0283 92.0436 47.053 92.0386 47.0777C92.0436 47.053 92.0486 47.0283 92.0551 47.0043Z" fill="#414A9F"/>
</g>
<path d="M92.1751 46.7246C92.1705 46.7333 92.1645 46.7404 92.1602 46.7493C92.1645 46.7404 92.1705 46.7333 92.1751 46.7246Z" fill="#006939"/>
<path d="M92.0551 47.0043C92.0606 46.9845 92.0668 46.9649 92.0736 46.9453C92.0809 46.9233 92.0884 46.9014 92.0971 46.88C92.1061 46.8577 92.1169 46.8356 92.1276 46.8136C92.1169 46.8356 92.1061 46.8577 92.0971 46.88C92.0884 46.9014 92.0809 46.9233 92.0736 46.9453C92.0668 46.9649 92.0606 46.9845 92.0551 47.0043C92.0486 47.0284 92.0436 47.053 92.0386 47.0778C92.0436 47.053 92.0486 47.0284 92.0551 47.0043Z" fill="#006939"/>
<path d="M82.3668 47.3565C82.3653 47.3653 82.3621 47.3722 82.3608 47.3812C82.3623 47.3706 82.3643 47.3642 82.3663 47.3566C82.3681 47.3501 82.3696 47.3428 82.3713 47.3381C82.3959 47.2764 82.4328 47.3653 82.3668 47.3565V47.3565Z" fill="#006939"/>
<path d="M137.186 21.7924C137.189 21.7891 137.209 21.8104 137.209 21.8104L137.189 21.7891L137.186 21.7924Z" fill="#8EC741"/>
<path d="M106.044 23.2728V23.2728L106.044 23.2722C106.034 23.2698 106.024 23.2673 106.014 23.2649L106.044 23.2728V23.2728Z" fill="#3BB54A"/>
<path d="M85.9326 19.8454C85.9791 19.7977 86.03 19.7543 86.0834 19.7139C86.03 19.7543 85.9791 19.7976 85.9326 19.8454Z" fill="#8EC741"/>
<path d="M86.424 19.5067C86.4019 19.518 86.3804 19.5304 86.3584 19.5422C86.3803 19.5304 86.4019 19.518 86.424 19.5067Z" fill="#8EC741"/>
<path d="M86.2506 19.6022C86.2178 19.6218 86.1868 19.6439 86.1553 19.6653C86.1868 19.6439 86.2178 19.6219 86.2506 19.6022Z" fill="#8EC741"/>
<path d="M72.7199 34.5255L72.7158 34.5244C72.7183 34.5255 72.7229 34.532 72.7261 34.535L72.7199 34.5255Z" fill="#3BB54A"/>
<path d="M59.3633 31.5317L59.3647 31.5327C59.3759 31.5309 59.374 31.5307 59.3633 31.5317Z" fill="#009447"/>
<path d="M59.2972 31.8042C59.307 31.8031 59.3571 31.8184 59.426 31.8416C59.2527 31.7518 59.1596 31.6907 59.2972 31.8042Z" fill="#009447"/>
<path d="M68.7833 41.6678C68.7731 41.6934 68.7634 41.7189 68.7534 41.7445C68.7628 41.7189 68.7727 41.6933 68.7833 41.6678Z" fill="#009447"/>
<path d="M18.2187 89.2263C17.1067 89.2263 16.2461 89.3393 15.6373 89.5641C15.0279 89.7895 14.6048 89.9683 14.3665 90.1004V105.556H8.80664V87.0411C8.91208 86.9617 9.20377 86.7897 9.68033 86.5246C10.1569 86.2601 10.7854 85.9882 11.5667 85.71C12.3473 85.432 13.2545 85.1806 14.287 84.9552C15.3196 84.7304 16.4446 84.6174 17.6627 84.6174C18.4036 84.6174 19.1054 84.6709 19.7675 84.7764C20.429 84.8826 21.0116 85.0415 21.5148 85.2531C22.0175 85.4655 22.4147 85.7436 22.7062 86.0876C22.9973 86.4321 23.1431 86.8561 23.1431 87.359C23.1431 88.1008 22.9973 88.6837 22.7062 89.1072C22.4147 89.5312 22.1632 89.849 21.9517 90.0608C21.8723 89.9813 21.6998 89.8956 21.4354 89.8025C21.1705 89.71 20.8658 89.6175 20.5221 89.5244C20.1776 89.4318 19.8004 89.3592 19.3902 89.3058C18.9794 89.2531 18.5891 89.2263 18.2187 89.2263V89.2263Z" fill="#8DC63F"/>
<path d="M42.4032 105.397C42.3238 105.424 42.0322 105.477 41.5295 105.556C41.0263 105.636 40.358 105.715 39.524 105.795C38.6901 105.874 37.7034 105.947 36.5654 106.013C35.4267 106.079 34.1826 106.113 32.8324 106.113C30.8728 106.113 29.2644 105.947 28.0072 105.616C26.7495 105.285 25.7497 104.828 25.0089 104.245C24.2674 103.663 23.7579 102.981 23.4799 102.199C23.202 101.418 23.063 100.564 23.063 99.6361C23.063 98.4976 23.2348 97.5044 23.5792 96.6563C23.9229 95.8089 24.4789 95.1136 25.2471 94.5703C26.0148 94.0277 27.0008 93.6237 28.2058 93.3585C29.4102 93.0941 30.8728 92.9612 32.5941 92.9612C33.7855 92.9612 34.7783 92.9947 35.5725 93.0605C36.3668 93.127 36.8297 93.1735 36.9626 93.1996V92.5638C36.9626 91.3192 36.5387 90.3656 35.6917 89.7031C34.8441 89.0414 33.5336 88.7099 31.7601 88.7099C30.9658 88.7099 30.264 88.7831 29.6554 88.9284C29.046 89.0743 28.5235 89.2462 28.0866 89.445C27.6498 89.6436 27.2787 89.8423 26.9746 90.0409C26.6699 90.2396 26.4249 90.3923 26.24 90.4978C25.8689 90.2862 25.5382 89.9484 25.2471 89.4846C24.9555 89.0215 24.8104 88.4982 24.8104 87.9153C24.8104 87.3329 24.9952 86.8363 25.3663 86.4253C25.7367 86.0149 26.2332 85.684 26.8556 85.432C27.4773 85.1806 28.1922 85.0017 29.0001 84.8956C29.8073 84.79 30.6345 84.7367 31.4822 84.7367C33.0967 84.7367 34.5729 84.8757 35.9101 85.1538C37.2467 85.432 38.3984 85.9088 39.3651 86.5843C40.3314 87.2596 41.0791 88.1604 41.6089 89.286C42.1383 90.4122 42.4032 91.8226 42.4032 93.5174V105.397H42.4032ZM36.9228 96.6563C36.8434 96.6303 36.6845 96.6035 36.4462 96.5768C36.208 96.5508 35.9164 96.524 35.5726 96.4974C35.2282 96.4713 34.851 96.4514 34.4407 96.4378C34.0299 96.4247 33.613 96.4179 33.1898 96.4179C32.21 96.4179 31.4157 96.4974 30.807 96.6563C30.1976 96.8152 29.7279 97.0337 29.3972 97.3119C29.0659 97.59 28.8412 97.9215 28.722 98.3051C28.6029 98.6894 28.5434 99.0937 28.5434 99.517C28.5434 99.8883 28.5961 100.246 28.7022 100.59C28.8077 100.934 29.0261 101.245 29.3574 101.523C29.6883 101.802 30.1517 102.027 30.7474 102.199C31.3431 102.371 32.1176 102.457 33.0707 102.457C34.0765 102.457 34.9105 102.411 35.5726 102.318C36.2341 102.226 36.6845 102.153 36.9228 102.1V96.6563H36.9228Z" fill="#8DC63F"/>
<path d="M52.4504 79.2933C52.4504 80.1414 52.1457 80.8627 51.5369 81.4587C50.9275 82.0547 50.1866 82.3527 49.313 82.3527C48.4653 82.3527 47.7374 82.0547 47.1288 81.4587C46.5194 80.8627 46.2153 80.1414 46.2153 79.2933C46.2153 78.4459 46.5194 77.7307 47.1288 77.1478C47.7374 76.5655 48.4653 76.2737 49.313 76.2737C50.1866 76.2737 50.9275 76.5655 51.5369 77.1478C52.1457 77.7307 52.4504 78.4459 52.4504 79.2933V79.2933ZM46.5728 87.6768C46.5728 86.7766 46.8371 86.154 47.3671 85.8094C47.8963 85.4655 48.5981 85.2929 49.4718 85.2929C50.0806 85.2929 50.6433 85.3594 51.1596 85.4915C51.6759 85.6244 51.9998 85.7169 52.1326 85.7697V105.556H46.5728V87.6768V87.6768Z" fill="#8DC63F"/>
<path d="M72.9812 84.6174C74.5958 84.6174 76.0918 84.8695 77.4688 85.3724C78.8451 85.8758 79.957 86.6705 80.8047 87.7563C81.4661 86.9089 82.3734 86.1738 83.5251 85.5511C84.6767 84.9292 86.1263 84.6174 87.8736 84.6174C89.0384 84.6174 90.1372 84.7832 91.1698 85.1141C92.2023 85.4456 93.1021 85.9354 93.8703 86.5843C94.6379 87.2336 95.2404 88.0344 95.6773 88.988C96.1141 89.9415 96.3325 91.041 96.3325 92.2858V105.556H90.7726V93.8353C90.7726 92.2728 90.4413 91.1137 89.7799 90.3587C89.1178 89.6039 88.1516 89.2263 86.8808 89.2263C85.5833 89.2263 84.5638 89.6635 83.8229 90.5376C83.0813 91.4117 82.7109 92.7097 82.7109 94.4313V105.556H77.1511V94.1531C77.1511 92.4844 76.8066 91.2465 76.1186 90.4382C75.4298 89.6305 74.3314 89.2263 72.8223 89.2263C71.7104 89.2263 70.8895 89.3194 70.3601 89.5045C69.8301 89.6901 69.433 89.849 69.1687 89.9813V105.556H63.6089V86.5246C63.7143 86.4719 64.019 86.3396 64.5224 86.1272C65.0249 85.9156 65.6802 85.697 66.4881 85.4716C67.2954 85.247 68.2485 85.0483 69.3475 84.8757C70.4458 84.7038 71.6571 84.6174 72.9812 84.6174V84.6174Z" fill="#8DC63F"/>
<path d="M118.334 105.397C118.254 105.424 117.963 105.477 117.46 105.556C116.957 105.636 116.289 105.715 115.455 105.795C114.621 105.874 113.634 105.947 112.496 106.013C111.357 106.079 110.113 106.113 108.763 106.113C106.803 106.113 105.195 105.947 103.938 105.616C102.68 105.285 101.68 104.828 100.94 104.245C100.198 103.663 99.6886 102.981 99.4105 102.199C99.1326 101.418 98.9937 100.564 98.9937 99.6361C98.9937 98.4976 99.1655 97.5044 99.5099 96.6563C99.8536 95.8089 100.41 95.1136 101.178 94.5703C101.945 94.0277 102.931 93.6237 104.136 93.3585C105.341 93.0941 106.803 92.9612 108.525 92.9612C109.716 92.9612 110.709 92.9947 111.503 93.0605C112.297 93.127 112.76 93.1735 112.893 93.1996V92.5638C112.893 91.3192 112.469 90.3656 111.622 89.7031C110.775 89.0414 109.464 88.7099 107.691 88.7099C106.896 88.7099 106.195 88.7831 105.586 88.9284C104.977 89.0743 104.454 89.2462 104.017 89.445C103.58 89.6436 103.209 89.8423 102.905 90.0409C102.601 90.2396 102.356 90.3923 102.171 90.4978C101.8 90.2862 101.469 89.9484 101.178 89.4846C100.886 89.0215 100.741 88.4982 100.741 87.9153C100.741 87.3329 100.926 86.8363 101.297 86.4253C101.667 86.0149 102.164 85.684 102.786 85.432C103.408 85.1806 104.123 85.0017 104.931 84.8956C105.738 84.79 106.565 84.7367 107.413 84.7367C109.027 84.7367 110.504 84.8757 111.841 85.1538C113.177 85.432 114.329 85.9088 115.296 86.5843C116.262 87.2596 117.01 88.1604 117.54 89.286C118.069 90.4122 118.334 91.8226 118.334 93.5174V105.397V105.397ZM112.853 96.6563C112.774 96.6303 112.615 96.6035 112.377 96.5768C112.139 96.5508 111.847 96.524 111.503 96.4974C111.159 96.4713 110.782 96.4514 110.371 96.4378C109.961 96.4247 109.544 96.4179 109.12 96.4179C108.141 96.4179 107.346 96.4974 106.738 96.6563C106.128 96.8152 105.659 97.0337 105.328 97.3119C104.997 97.59 104.772 97.9215 104.653 98.3051C104.534 98.6894 104.474 99.0937 104.474 99.517C104.474 99.8883 104.527 100.246 104.633 100.59C104.738 100.934 104.957 101.245 105.288 101.523C105.619 101.802 106.082 102.027 106.678 102.199C107.274 102.371 108.048 102.457 109.001 102.457C110.007 102.457 110.841 102.411 111.503 102.318C112.165 102.226 112.615 102.153 112.853 102.1V96.6563V96.6563Z" fill="#8DC63F"/>
<path d="M128.976 89.8224V98.6031C128.976 99.769 129.248 100.557 129.791 100.967C130.333 101.378 131.042 101.583 131.915 101.583C132.286 101.583 132.65 101.537 133.007 101.444C133.365 101.352 133.682 101.245 133.96 101.126C134.238 101.007 134.47 100.888 134.655 100.769C134.84 100.649 134.946 100.577 134.973 100.55L137.038 103.888C136.985 103.941 136.813 104.086 136.522 104.325C136.23 104.563 135.813 104.815 135.271 105.079C134.728 105.345 134.066 105.582 133.285 105.795C132.504 106.006 131.624 106.113 130.644 106.113C128.103 106.113 126.262 105.464 125.124 104.166C123.986 102.868 123.417 101.186 123.417 99.1197V89.8224H122.106C121.206 89.8224 120.577 89.6237 120.22 89.2263C119.862 88.829 119.684 88.2728 119.684 87.5576C119.684 87.0013 119.763 86.5184 119.922 86.1075C120.081 85.697 120.186 85.4257 120.24 85.2929H123.417V81.7965C123.417 80.8963 123.681 80.2736 124.211 79.9291C124.74 79.5852 125.442 79.4126 126.316 79.4126C126.924 79.4126 127.487 79.4789 128.003 79.6112C128.52 79.7441 128.844 79.8366 128.976 79.8894V85.2929H133.226C134.126 85.2929 134.755 85.4915 135.112 85.8889C135.47 86.2862 135.648 86.8424 135.648 87.5576C135.648 88.1138 135.569 88.5975 135.41 89.0078C135.251 89.4188 135.145 89.6901 135.092 89.8224H128.976V89.8224Z" fill="#8DC63F"/>
<path d="M156.061 105.397C155.981 105.424 155.69 105.477 155.187 105.556C154.684 105.636 154.016 105.715 153.182 105.795C152.348 105.874 151.361 105.947 150.223 106.013C149.084 106.079 147.84 106.113 146.49 106.113C144.53 106.113 142.922 105.947 141.665 105.616C140.407 105.285 139.407 104.828 138.667 104.245C137.925 103.663 137.416 102.981 137.138 102.199C136.86 101.418 136.721 100.564 136.721 99.6361C136.721 98.4976 136.893 97.5044 137.237 96.6563C137.581 95.8089 138.137 95.1136 138.905 94.5703C139.672 94.0277 140.658 93.6237 141.864 93.3585C143.068 93.0941 144.53 92.9612 146.252 92.9612C147.443 92.9612 148.436 92.9947 149.23 93.0605C150.025 93.127 150.487 93.1735 150.62 93.1996V92.5638C150.62 91.3192 150.196 90.3656 149.349 89.7031C148.502 89.0414 147.191 88.7099 145.418 88.7099C144.624 88.7099 143.922 88.7831 143.313 88.9284C142.704 89.0743 142.181 89.2462 141.744 89.445C141.308 89.6436 140.936 89.8423 140.632 90.0409C140.328 90.2396 140.083 90.3923 139.898 90.4978C139.527 90.2862 139.196 89.9484 138.905 89.4846C138.613 89.0215 138.468 88.4982 138.468 87.9153C138.468 87.3329 138.653 86.8363 139.024 86.4253C139.394 86.0149 139.891 85.684 140.513 85.432C141.135 85.1806 141.85 85.0017 142.658 84.8956C143.465 84.79 144.292 84.7367 145.14 84.7367C146.754 84.7367 148.231 84.8757 149.568 85.1538C150.904 85.432 152.056 85.9088 153.023 86.5843C153.989 87.2596 154.737 88.1604 155.267 89.286C155.796 90.4122 156.061 91.8226 156.061 93.5174V105.397V105.397ZM150.581 96.6563C150.501 96.6303 150.342 96.6035 150.104 96.5768C149.866 96.5508 149.574 96.524 149.23 96.4974C148.886 96.4713 148.509 96.4514 148.098 96.4378C147.688 96.4247 147.271 96.4179 146.847 96.4179C145.868 96.4179 145.073 96.4974 144.465 96.6563C143.855 96.8152 143.386 97.0337 143.055 97.3119C142.724 97.59 142.499 97.9215 142.38 98.3051C142.261 98.6894 142.201 99.0937 142.201 99.517C142.201 99.8883 142.254 100.246 142.36 100.59C142.465 100.934 142.684 101.245 143.015 101.523C143.346 101.802 143.809 102.027 144.405 102.199C145.001 102.371 145.775 102.457 146.728 102.457C147.734 102.457 148.568 102.411 149.23 102.318C149.892 102.226 150.342 102.153 150.581 102.1V96.6563V96.6563Z" fill="#8DC63F"/>
<path d="M160.032 78.6576C160.032 77.7575 160.296 77.1348 160.826 76.7903C161.355 76.4462 162.057 76.2737 162.931 76.2737C163.539 76.2737 164.102 76.3401 164.619 76.4724C165.135 76.6052 165.459 76.6977 165.592 76.7505V92.8817C166.041 92.5111 166.571 92.0672 167.18 91.5507C167.789 91.0342 168.398 90.5114 169.007 89.9813C169.616 89.4517 170.205 88.942 170.774 88.4516C171.343 87.9618 171.827 87.5576 172.224 87.2397C172.621 86.8958 172.984 86.604 173.316 86.3656C173.647 86.1272 173.964 85.9354 174.269 85.7895C174.573 85.6443 174.891 85.5381 175.222 85.4716C175.553 85.4059 175.93 85.3724 176.354 85.3724C176.91 85.3724 177.393 85.4586 177.803 85.6305C178.214 85.8032 178.558 86.0018 178.836 86.2266C179.114 86.452 179.332 86.6636 179.491 86.8623C179.65 87.061 179.756 87.2 179.809 87.2795C179.465 87.624 178.896 88.1406 178.101 88.829C177.307 89.5181 176.459 90.2333 175.56 90.9745C174.659 91.7165 173.799 92.4185 172.978 93.0804C172.157 93.7427 171.549 94.2195 171.151 94.5107C172.051 95.2526 172.965 96.087 173.892 97.0138C174.818 97.9413 175.712 98.8949 176.572 99.8745C177.432 100.855 178.24 101.835 178.995 102.815C179.749 103.795 180.418 104.709 181 105.556H174.09C173.481 104.736 172.806 103.901 172.065 103.053C171.323 102.206 170.576 101.384 169.821 100.59C169.066 99.795 168.325 99.0601 167.597 98.3846C166.869 97.7092 166.2 97.12 165.592 96.6165V105.556H160.032V78.6576V78.6576Z" fill="#8DC63F"/>
<path d="M104.264 116.883V112.291C104.264 112.149 104.301 112.041 104.377 111.965C104.453 111.889 104.569 111.852 104.725 111.852H107.009C107.258 111.852 107.382 111.966 107.382 112.196C107.382 112.279 107.37 112.352 107.345 112.415C107.321 112.479 107.302 112.523 107.287 112.547H105.054V114.041H106.796C107.04 114.041 107.162 114.156 107.162 114.386C107.162 114.469 107.15 114.542 107.126 114.605C107.101 114.669 107.082 114.713 107.067 114.737H105.054V116.883H104.264V116.883Z" fill="#00793F"/>
<path d="M110.485 113.551C110.485 113.433 110.519 113.347 110.588 113.291C110.656 113.234 110.754 113.206 110.881 113.206C110.964 113.206 111.038 113.216 111.104 113.236C111.17 113.255 111.215 113.27 111.239 113.28V116.883C111.205 116.893 111.145 116.902 111.06 116.912C110.975 116.922 110.871 116.933 110.749 116.945C110.627 116.957 110.493 116.967 110.346 116.974C110.2 116.982 110.051 116.985 109.9 116.985C109.456 116.985 109.096 116.932 108.82 116.824C108.544 116.717 108.326 116.561 108.165 116.355C107.965 116.097 107.865 115.753 107.865 115.323V113.551C107.865 113.433 107.899 113.347 107.967 113.291C108.036 113.234 108.133 113.206 108.26 113.206C108.343 113.206 108.417 113.216 108.483 113.236C108.549 113.255 108.594 113.27 108.619 113.28V115.242C108.619 115.613 108.713 115.892 108.901 116.077C109.088 116.263 109.407 116.355 109.856 116.355C110.027 116.355 110.164 116.349 110.269 116.337C110.374 116.325 110.446 116.314 110.485 116.304V113.551V113.551Z" fill="#00793F"/>
<path d="M113.194 113.836V115.726C113.194 115.97 113.248 116.137 113.355 116.227C113.462 116.318 113.609 116.363 113.794 116.363C113.872 116.363 113.945 116.354 114.014 116.337C114.082 116.32 114.143 116.299 114.197 116.275C114.25 116.251 114.294 116.227 114.329 116.205C114.363 116.183 114.387 116.168 114.402 116.158L114.695 116.626C114.675 116.641 114.638 116.669 114.585 116.711C114.531 116.752 114.46 116.793 114.373 116.831C114.285 116.871 114.179 116.906 114.054 116.938C113.93 116.969 113.789 116.985 113.633 116.985C113.423 116.985 113.243 116.956 113.091 116.897C112.94 116.839 112.816 116.757 112.718 116.652C112.621 116.547 112.549 116.424 112.502 116.282C112.456 116.141 112.433 115.987 112.433 115.821V113.836H112.096C111.862 113.836 111.745 113.731 111.745 113.521C111.745 113.443 111.757 113.376 111.781 113.32C111.806 113.264 111.823 113.226 111.832 113.206H112.433V112.408C112.433 112.291 112.468 112.204 112.539 112.148C112.61 112.092 112.708 112.064 112.835 112.064C112.918 112.064 112.993 112.074 113.059 112.093C113.124 112.113 113.17 112.127 113.194 112.137V113.206H114.131C114.36 113.206 114.475 113.311 114.475 113.521C114.475 113.599 114.464 113.667 114.442 113.723C114.42 113.779 114.404 113.817 114.394 113.836H113.194H113.194Z" fill="#00793F"/>
<path d="M117.571 113.551C117.571 113.433 117.605 113.347 117.674 113.291C117.742 113.234 117.84 113.206 117.967 113.206C118.05 113.206 118.124 113.216 118.19 113.236C118.256 113.255 118.301 113.27 118.325 113.28V116.883C118.291 116.893 118.231 116.902 118.146 116.912C118.06 116.922 117.957 116.933 117.835 116.945C117.713 116.957 117.579 116.967 117.432 116.974C117.286 116.982 117.137 116.985 116.986 116.985C116.542 116.985 116.182 116.932 115.906 116.824C115.63 116.717 115.412 116.561 115.251 116.355C115.051 116.097 114.951 115.753 114.951 115.323V113.551C114.951 113.433 114.985 113.347 115.053 113.291C115.122 113.234 115.219 113.206 115.346 113.206C115.429 113.206 115.503 113.216 115.569 113.236C115.635 113.255 115.68 113.27 115.705 113.28V115.242C115.705 115.613 115.799 115.892 115.986 116.077C116.174 116.263 116.493 116.355 116.942 116.355C117.113 116.355 117.25 116.349 117.355 116.337C117.46 116.325 117.532 116.314 117.571 116.304V113.551V113.551Z" fill="#00793F"/>
<path d="M120.858 113.726C120.736 113.726 120.629 113.735 120.536 113.752C120.443 113.769 120.364 113.789 120.298 113.811C120.232 113.833 120.18 113.855 120.141 113.876C120.102 113.898 120.075 113.914 120.06 113.924V116.883H119.306V113.536C119.321 113.521 119.366 113.491 119.442 113.444C119.517 113.398 119.62 113.349 119.749 113.298C119.878 113.247 120.031 113.2 120.206 113.159C120.382 113.117 120.58 113.097 120.799 113.097C120.995 113.097 121.154 113.109 121.279 113.133C121.403 113.158 121.502 113.189 121.575 113.228C121.712 113.297 121.78 113.397 121.78 113.529C121.78 113.621 121.761 113.7 121.722 113.763C121.683 113.827 121.649 113.87 121.619 113.895C121.57 113.861 121.475 113.824 121.334 113.785C121.192 113.746 121.034 113.726 120.858 113.726V113.726Z" fill="#00793F"/>
<path d="M124.803 113.551C124.803 113.433 124.837 113.347 124.906 113.291C124.974 113.234 125.072 113.206 125.199 113.206C125.281 113.206 125.356 113.216 125.422 113.236C125.488 113.255 125.533 113.27 125.557 113.28V116.883C125.523 116.893 125.463 116.902 125.378 116.912C125.292 116.922 125.189 116.933 125.067 116.945C124.945 116.957 124.811 116.967 124.664 116.974C124.518 116.982 124.369 116.985 124.218 116.985C123.774 116.985 123.414 116.932 123.138 116.824C122.862 116.717 122.644 116.561 122.483 116.355C122.283 116.097 122.183 115.753 122.183 115.323V113.551C122.183 113.433 122.217 113.347 122.285 113.291C122.353 113.234 122.451 113.206 122.578 113.206C122.661 113.206 122.735 113.216 122.801 113.236C122.867 113.255 122.912 113.27 122.937 113.28V115.242C122.937 115.613 123.031 115.892 123.218 116.077C123.406 116.263 123.725 116.355 124.174 116.355C124.345 116.355 124.482 116.349 124.587 116.337C124.692 116.325 124.764 116.314 124.803 116.304V113.551V113.551Z" fill="#00793F"/>
<path d="M128.083 111.829C128.083 111.6 128.217 111.485 128.486 111.485C128.564 111.485 128.636 111.495 128.702 111.515C128.767 111.534 128.812 111.549 128.837 111.559V113.682C128.856 113.653 128.893 113.607 128.947 113.543C129 113.48 129.076 113.415 129.174 113.349C129.271 113.283 129.392 113.226 129.536 113.177C129.68 113.128 129.852 113.104 130.052 113.104C130.296 113.104 130.522 113.145 130.729 113.228C130.937 113.311 131.117 113.432 131.271 113.591C131.425 113.75 131.545 113.945 131.633 114.177C131.721 114.409 131.765 114.671 131.765 114.964C131.765 115.272 131.717 115.55 131.622 115.799C131.527 116.048 131.384 116.26 131.194 116.436C131.004 116.612 130.764 116.747 130.477 116.842C130.189 116.938 129.852 116.985 129.467 116.985C129.276 116.985 129.101 116.98 128.939 116.971C128.778 116.961 128.637 116.95 128.515 116.938C128.393 116.925 128.295 116.914 128.222 116.905C128.149 116.895 128.102 116.888 128.083 116.883V111.829V111.829ZM130.974 115.023C130.974 114.622 130.882 114.307 130.696 114.078C130.511 113.848 130.242 113.734 129.891 113.734C129.715 113.734 129.562 113.764 129.43 113.825C129.298 113.886 129.188 113.972 129.101 114.082C129.013 114.191 128.947 114.32 128.903 114.466C128.859 114.612 128.837 114.771 128.837 114.942V116.312C128.876 116.326 128.954 116.343 129.071 116.363C129.188 116.382 129.352 116.392 129.562 116.392C129.81 116.392 130.024 116.359 130.202 116.293C130.38 116.227 130.527 116.133 130.641 116.011C130.756 115.889 130.84 115.744 130.894 115.576C130.947 115.407 130.974 115.223 130.974 115.023Z" fill="#00793F"/>
<path d="M133.866 113.675C133.724 113.675 133.599 113.687 133.489 113.712C133.379 113.736 133.284 113.764 133.203 113.796C133.123 113.828 133.056 113.862 133.002 113.898C132.948 113.935 132.904 113.966 132.87 113.99C132.817 113.956 132.77 113.907 132.731 113.843C132.692 113.78 132.673 113.707 132.673 113.624C132.673 113.541 132.696 113.471 132.742 113.415C132.789 113.359 132.851 113.311 132.929 113.272C133.012 113.233 133.127 113.195 133.273 113.159C133.419 113.122 133.602 113.104 133.822 113.104C134.115 113.104 134.378 113.131 134.612 113.184C134.847 113.238 135.045 113.327 135.209 113.452C135.372 113.576 135.498 113.739 135.586 113.939C135.674 114.139 135.718 114.383 135.718 114.671V116.861C135.63 116.88 135.446 116.906 135.165 116.938C134.884 116.969 134.52 116.985 134.071 116.985C133.705 116.985 133.408 116.952 133.181 116.886C132.954 116.821 132.778 116.733 132.651 116.623C132.524 116.513 132.438 116.387 132.394 116.246C132.351 116.104 132.329 115.958 132.329 115.806C132.329 115.616 132.358 115.445 132.416 115.294C132.475 115.142 132.57 115.015 132.702 114.913C132.834 114.81 133.008 114.731 133.225 114.675C133.442 114.619 133.71 114.59 134.027 114.59C134.246 114.59 134.445 114.595 134.623 114.605C134.801 114.615 134.92 114.625 134.978 114.634V114.598C134.978 114.52 134.971 114.447 134.956 114.378C134.917 114.149 134.811 113.974 134.638 113.854C134.465 113.735 134.207 113.675 133.866 113.675V113.675ZM134.971 115.162C134.956 115.157 134.92 115.152 134.861 115.147C134.803 115.142 134.732 115.136 134.649 115.129C134.566 115.121 134.477 115.115 134.382 115.11C134.287 115.106 134.195 115.103 134.107 115.103C133.741 115.103 133.479 115.159 133.321 115.272C133.162 115.384 133.083 115.557 133.083 115.792C133.083 115.889 133.097 115.979 133.127 116.062C133.156 116.146 133.209 116.216 133.287 116.275C133.366 116.334 133.47 116.379 133.602 116.41C133.734 116.442 133.9 116.458 134.1 116.458C134.349 116.458 134.544 116.448 134.686 116.429C134.827 116.409 134.922 116.392 134.971 116.377V115.162V115.162Z" fill="#00793F"/>
<path d="M141.669 111.852C141.918 111.852 142.042 111.966 142.042 112.196C142.042 112.279 142.03 112.352 142.005 112.415C141.981 112.479 141.962 112.523 141.947 112.547H140.249V116.883H139.458V112.547H138.155C137.906 112.547 137.782 112.433 137.782 112.203C137.782 112.12 137.794 112.047 137.818 111.983C137.843 111.92 137.862 111.876 137.877 111.852H141.669V111.852Z" fill="#00793F"/>
<path d="M143.469 111.947C143.469 112.074 143.423 112.182 143.33 112.273C143.237 112.363 143.125 112.408 142.993 112.408C142.866 112.408 142.757 112.363 142.664 112.273C142.571 112.182 142.525 112.074 142.525 111.947C142.525 111.82 142.571 111.711 142.664 111.621C142.757 111.531 142.866 111.485 142.993 111.485C143.125 111.485 143.237 111.531 143.33 111.621C143.423 111.711 143.469 111.82 143.469 111.947ZM142.62 113.551C142.62 113.429 142.655 113.341 142.726 113.287C142.797 113.233 142.896 113.206 143.023 113.206C143.106 113.206 143.18 113.215 143.246 113.232C143.312 113.249 143.357 113.263 143.381 113.272V116.883H142.62V113.551V113.551Z" fill="#00793F"/>
<path d="M145.987 113.089C146.3 113.089 146.579 113.144 146.826 113.254C147.072 113.364 147.268 113.536 147.415 113.77C147.542 113.565 147.717 113.4 147.942 113.276C148.166 113.151 148.432 113.089 148.74 113.089C148.949 113.089 149.147 113.118 149.333 113.177C149.518 113.236 149.679 113.322 149.816 113.437C149.952 113.552 150.06 113.696 150.138 113.869C150.216 114.042 150.255 114.246 150.255 114.481V116.883H149.494V114.737C149.494 114.385 149.418 114.129 149.267 113.968C149.115 113.807 148.901 113.726 148.623 113.726C148.349 113.726 148.127 113.815 147.956 113.994C147.786 114.172 147.7 114.451 147.7 114.832V116.883H146.946V114.803C146.946 114.427 146.861 114.154 146.69 113.983C146.519 113.812 146.28 113.726 145.973 113.726C145.734 113.726 145.548 113.748 145.416 113.792C145.285 113.836 145.202 113.868 145.168 113.887V116.883H144.414V113.411C144.433 113.402 144.483 113.38 144.564 113.345C144.644 113.311 144.751 113.275 144.886 113.236C145.02 113.197 145.18 113.162 145.365 113.133C145.551 113.104 145.758 113.089 145.987 113.089V113.089Z" fill="#00793F"/>
<path d="M154.94 115.045C154.94 115.323 154.892 115.582 154.797 115.821C154.702 116.06 154.569 116.266 154.398 116.44C154.227 116.613 154.022 116.75 153.783 116.85C153.544 116.95 153.28 117 152.993 117C152.705 117 152.44 116.95 152.198 116.85C151.957 116.75 151.751 116.613 151.58 116.44C151.409 116.266 151.276 116.06 151.181 115.821C151.086 115.582 151.038 115.323 151.038 115.045C151.038 114.766 151.086 114.507 151.181 114.268C151.276 114.029 151.409 113.823 151.58 113.649C151.751 113.476 151.957 113.339 152.198 113.239C152.44 113.139 152.705 113.089 152.993 113.089C153.28 113.089 153.544 113.139 153.783 113.239C154.022 113.339 154.227 113.476 154.398 113.649C154.569 113.823 154.702 114.029 154.797 114.268C154.892 114.507 154.94 114.766 154.94 115.045ZM154.156 115.045C154.156 114.849 154.13 114.67 154.076 114.506C154.022 114.343 153.945 114.201 153.845 114.081C153.745 113.962 153.623 113.869 153.479 113.803C153.335 113.737 153.173 113.704 152.993 113.704C152.807 113.704 152.642 113.737 152.499 113.803C152.354 113.869 152.232 113.962 152.132 114.081C152.032 114.201 151.956 114.343 151.902 114.506C151.848 114.67 151.821 114.849 151.821 115.045C151.821 115.24 151.848 115.419 151.902 115.583C151.956 115.746 152.032 115.888 152.132 116.008C152.232 116.127 152.354 116.22 152.499 116.286C152.642 116.352 152.807 116.385 152.993 116.385C153.173 116.385 153.335 116.352 153.479 116.286C153.623 116.22 153.745 116.127 153.845 116.008C153.945 115.888 154.022 115.746 154.076 115.583C154.13 115.419 154.156 115.24 154.156 115.045Z" fill="#00793F"/>
<path d="M157.282 113.726C157.16 113.726 157.053 113.735 156.96 113.752C156.867 113.769 156.788 113.789 156.722 113.811C156.656 113.833 156.604 113.855 156.565 113.876C156.526 113.898 156.499 113.914 156.484 113.924V116.883H155.73V113.536C155.745 113.521 155.79 113.491 155.866 113.444C155.941 113.398 156.044 113.349 156.173 113.298C156.303 113.247 156.455 113.2 156.631 113.159C156.807 113.117 157.004 113.097 157.224 113.097C157.419 113.097 157.579 113.109 157.703 113.133C157.828 113.158 157.927 113.189 158 113.228C158.136 113.297 158.205 113.397 158.205 113.529C158.205 113.621 158.185 113.7 158.146 113.763C158.107 113.827 158.073 113.87 158.044 113.895C157.995 113.861 157.9 113.824 157.758 113.785C157.617 113.746 157.458 113.726 157.282 113.726V113.726Z" fill="#00793F"/>
<path d="M158.798 115.264C158.651 115.264 158.549 115.228 158.49 115.154C158.432 115.081 158.402 114.988 158.402 114.876C158.402 114.793 158.413 114.721 158.435 114.66C158.457 114.599 158.473 114.552 158.483 114.517H159.881C160.027 114.517 160.13 114.554 160.188 114.627C160.247 114.7 160.276 114.793 160.276 114.905C160.276 114.988 160.265 115.06 160.243 115.121C160.221 115.183 160.206 115.23 160.196 115.264H158.798Z" fill="#00793F"/>
<path d="M161.118 112.225C161.118 112.098 161.155 112.004 161.228 111.943C161.301 111.882 161.404 111.852 161.535 111.852C161.618 111.852 161.695 111.863 161.766 111.884C161.837 111.906 161.884 111.925 161.909 111.939V116.194H164.361V116.883H161.118V112.225V112.225Z" fill="#00793F"/>
<path d="M168.277 114.495C168.277 114.779 168.199 115.001 168.043 115.162C167.886 115.323 167.62 115.403 167.245 115.403H165.532C165.576 115.711 165.704 115.948 165.916 116.114C166.128 116.28 166.415 116.363 166.776 116.363C167.054 116.363 167.282 116.335 167.461 116.279C167.639 116.222 167.759 116.175 167.823 116.136L168.057 116.685C168.033 116.7 167.983 116.725 167.907 116.762C167.832 116.799 167.734 116.834 167.614 116.868C167.495 116.902 167.356 116.933 167.197 116.96C167.038 116.986 166.867 117 166.681 117C166.408 117 166.153 116.961 165.916 116.883C165.679 116.805 165.473 116.688 165.298 116.531C165.122 116.375 164.984 116.177 164.884 115.938C164.784 115.699 164.734 115.421 164.734 115.103C164.734 114.805 164.782 114.533 164.877 114.287C164.972 114.04 165.105 113.828 165.276 113.649C165.446 113.471 165.649 113.333 165.883 113.236C166.117 113.138 166.376 113.089 166.659 113.089C166.923 113.089 167.156 113.125 167.358 113.195C167.561 113.266 167.729 113.364 167.863 113.488C167.997 113.613 168.1 113.76 168.171 113.931C168.241 114.102 168.277 114.29 168.277 114.495V114.495ZM167.552 114.422C167.552 114.329 167.536 114.237 167.505 114.144C167.473 114.051 167.42 113.968 167.347 113.895C167.274 113.821 167.18 113.762 167.065 113.715C166.951 113.669 166.813 113.646 166.652 113.646C166.466 113.646 166.303 113.684 166.161 113.759C166.02 113.835 165.902 113.931 165.806 114.049C165.711 114.166 165.639 114.296 165.59 114.44C165.542 114.584 165.515 114.727 165.51 114.869H167.054C167.23 114.869 167.357 114.837 167.435 114.773C167.513 114.71 167.552 114.593 167.552 114.422V114.422Z" fill="#00793F"/>
<path d="M170.466 113.675C170.148 113.675 169.924 113.719 169.792 113.807C169.661 113.895 169.595 114.019 169.595 114.18C169.595 114.312 169.651 114.412 169.763 114.481C169.875 114.549 170.044 114.6 170.268 114.634L170.898 114.722C171.366 114.791 171.699 114.914 171.897 115.092C172.094 115.27 172.193 115.504 172.193 115.792C172.193 116.143 172.057 116.43 171.783 116.652C171.51 116.874 171.093 116.985 170.532 116.985C170.273 116.985 170.04 116.964 169.833 116.923C169.625 116.882 169.448 116.835 169.302 116.784C169.155 116.733 169.04 116.681 168.954 116.63C168.869 116.579 168.816 116.546 168.797 116.531L169.097 116.004C169.116 116.019 169.164 116.047 169.24 116.088C169.315 116.13 169.414 116.174 169.536 116.22C169.658 116.266 169.802 116.307 169.968 116.341C170.134 116.375 170.319 116.392 170.524 116.392C170.803 116.392 171.017 116.354 171.169 116.279C171.32 116.203 171.395 116.077 171.395 115.901C171.395 115.76 171.341 115.651 171.231 115.576C171.121 115.5 170.922 115.442 170.634 115.403L170.129 115.33C169.719 115.272 169.402 115.158 169.177 114.99C168.953 114.821 168.841 114.573 168.841 114.246C168.841 114.095 168.868 113.951 168.921 113.814C168.975 113.678 169.064 113.557 169.189 113.452C169.313 113.347 169.476 113.263 169.679 113.199C169.881 113.136 170.131 113.104 170.429 113.104C170.766 113.104 171.034 113.131 171.234 113.184C171.434 113.238 171.583 113.289 171.681 113.338C171.881 113.441 171.981 113.565 171.981 113.712C171.981 113.809 171.954 113.889 171.901 113.95C171.847 114.011 171.793 114.058 171.74 114.092C171.73 114.083 171.697 114.055 171.641 114.008C171.585 113.962 171.505 113.914 171.403 113.865C171.3 113.817 171.171 113.773 171.015 113.734C170.859 113.695 170.676 113.675 170.466 113.675V113.675Z" fill="#00793F"/>
<path d="M173.855 113.836V115.726C173.855 115.97 173.908 116.137 174.016 116.227C174.123 116.318 174.269 116.363 174.455 116.363C174.533 116.363 174.606 116.354 174.674 116.337C174.743 116.32 174.804 116.299 174.857 116.275C174.911 116.251 174.955 116.227 174.989 116.205C175.023 116.183 175.048 116.168 175.062 116.158L175.355 116.626C175.336 116.641 175.299 116.669 175.245 116.711C175.192 116.752 175.121 116.793 175.033 116.831C174.945 116.871 174.839 116.906 174.715 116.938C174.59 116.969 174.45 116.985 174.294 116.985C174.084 116.985 173.903 116.956 173.752 116.897C173.601 116.839 173.476 116.757 173.379 116.652C173.281 116.547 173.209 116.424 173.163 116.282C173.116 116.141 173.093 115.987 173.093 115.821V113.836H172.757C172.522 113.836 172.405 113.731 172.405 113.521C172.405 113.443 172.417 113.376 172.442 113.32C172.466 113.264 172.483 113.226 172.493 113.206H173.093V112.408C173.093 112.291 173.129 112.204 173.2 112.148C173.27 112.092 173.369 112.064 173.496 112.064C173.579 112.064 173.653 112.074 173.719 112.093C173.785 112.113 173.83 112.127 173.855 112.137V113.206H174.792C175.021 113.206 175.136 113.311 175.136 113.521C175.136 113.599 175.125 113.667 175.103 113.723C175.081 113.779 175.065 113.817 175.055 113.836H173.855V113.836Z" fill="#00793F"/>
<path d="M179.044 114.495C179.044 114.779 178.966 115.001 178.81 115.162C178.654 115.323 178.388 115.403 178.012 115.403H176.299C176.343 115.711 176.471 115.948 176.684 116.114C176.896 116.28 177.183 116.363 177.544 116.363C177.822 116.363 178.05 116.335 178.228 116.279C178.406 116.222 178.527 116.175 178.591 116.136L178.825 116.685C178.8 116.7 178.75 116.725 178.675 116.762C178.599 116.799 178.502 116.834 178.382 116.868C178.262 116.902 178.123 116.933 177.965 116.96C177.806 116.986 177.634 117 177.449 117C177.175 117 176.92 116.961 176.684 116.883C176.447 116.805 176.241 116.688 176.065 116.531C175.889 116.375 175.752 116.177 175.652 115.938C175.551 115.699 175.501 115.421 175.501 115.103C175.501 114.805 175.549 114.533 175.644 114.287C175.739 114.04 175.872 113.828 176.043 113.649C176.214 113.471 176.417 113.333 176.651 113.236C176.885 113.138 177.144 113.089 177.427 113.089C177.69 113.089 177.923 113.125 178.126 113.195C178.328 113.266 178.497 113.364 178.631 113.488C178.765 113.613 178.868 113.76 178.938 113.931C179.009 114.102 179.044 114.29 179.044 114.495V114.495ZM178.32 114.422C178.32 114.329 178.304 114.237 178.272 114.144C178.24 114.051 178.188 113.968 178.115 113.895C178.042 113.821 177.948 113.762 177.833 113.715C177.718 113.669 177.58 113.646 177.419 113.646C177.234 113.646 177.07 113.684 176.929 113.759C176.787 113.835 176.669 113.931 176.574 114.049C176.479 114.166 176.407 114.296 176.358 114.44C176.309 114.584 176.282 114.727 176.277 114.869H177.822C177.998 114.869 178.125 114.837 178.203 114.773C178.281 114.71 178.32 114.593 178.32 114.422V114.422Z" fill="#00793F"/>
</svg>